<svg width="52" height="52" viewBox="0 0 52 52" fill="none" xmlns="http://www.w3.org/2000/svg">
<path d="M18.3307 5.9856C19.9836 5.9856 21.3235 4.64568 21.3235 2.9928C21.3235 1.33992 19.9836 -7.62939e-06 18.3307 -7.62939e-06C16.6778 -7.62939e-06 15.3379 1.33992 15.3379 2.9928C15.3379 4.64568 16.6778 5.9856 18.3307 5.9856Z" fill="#202124"/>
<path d="M25.9791 5.9856C27.632 5.9856 28.9719 4.64568 28.9719 2.9928C28.9719 1.33992 27.632 -7.62939e-06 25.9791 -7.62939e-06C24.3263 -7.62939e-06 22.9863 1.33992 22.9863 2.9928C22.9863 4.64568 24.3263 5.9856 25.9791 5.9856Z" fill="#202124"/>
<path d="M33.6691 5.9856C35.322 5.9856 36.6619 4.64568 36.6619 2.9928C36.6619 1.33992 35.322 -7.62939e-06 33.6691 -7.62939e-06C32.0162 -7.62939e-06 30.6763 1.33992 30.6763 2.9928C30.6763 4.64568 32.0162 5.9856 33.6691 5.9856Z" fill="#202124"/>
<path d="M18.3307 13.6755C19.9836 13.6755 21.3235 12.3355 21.3235 10.6826C21.3235 9.02977 19.9836 7.68984 18.3307 7.68984C16.6778 7.68984 15.3379 9.02977 15.3379 10.6826C15.3379 12.3355 16.6778 13.6755 18.3307 13.6755Z" fill="#202124"/>
<path d="M10.6827 13.6755C12.3356 13.6755 13.6756 12.3355 13.6756 10.6826C13.6756 9.02977 12.3356 7.68984 10.6827 7.68984C9.02986 7.68984 7.68994 9.02977 7.68994 10.6826C7.68994 12.3355 9.02986 13.6755 10.6827 13.6755Z" fill="#202124"/>
<path d="M25.9791 13.6755C27.632 13.6755 28.9719 12.3355 28.9719 10.6826C28.9719 9.02977 27.632 7.68984 25.9791 7.68984C24.3263 7.68984 22.9863 9.02977 22.9863 10.6826C22.9863 12.3355 24.3263 13.6755 25.9791 13.6755Z" fill="#202124"/>
<path d="M33.6691 13.6755C35.322 13.6755 36.6619 12.3355 36.6619 10.6826C36.6619 9.02977 35.322 7.68984 33.6691 7.68984C32.0162 7.68984 30.6763 9.02977 30.6763 10.6826C30.6763 12.3355 32.0162 13.6755 33.6691 13.6755Z" fill="#D8FFA2"/>
<path d="M41.317 13.6755C42.9699 13.6755 44.3098 12.3355 44.3098 10.6826C44.3098 9.02977 42.9699 7.68984 41.317 7.68984C39.6641 7.68984 38.3242 9.02977 38.3242 10.6826C38.3242 12.3355 39.6641 13.6755 41.317 13.6755Z" fill="#202124"/>
<path d="M33.6691 52C35.322 52 36.6619 50.6601 36.6619 49.0072C36.6619 47.3543 35.322 46.0144 33.6691 46.0144C32.0162 46.0144 30.6763 47.3543 30.6763 49.0072C30.6763 50.6601 32.0162 52 33.6691 52Z" fill="#202124"/>
<path d="M25.9791 52C27.632 52 28.9719 50.6601 28.9719 49.0072C28.9719 47.3543 27.632 46.0144 25.9791 46.0144C24.3263 46.0144 22.9863 47.3543 22.9863 49.0072C22.9863 50.6601 24.3263 52 25.9791 52Z" fill="#202124"/>
<path d="M18.3307 52C19.9836 52 21.3235 50.6601 21.3235 49.0072C21.3235 47.3543 19.9836 46.0144 18.3307 46.0144C16.6778 46.0144 15.3379 47.3543 15.3379 49.0072C15.3379 50.6601 16.6778 52 18.3307 52Z" fill="#202124"/>
<path d="M33.6691 44.3102C35.322 44.3102 36.6619 42.9702 36.6619 41.3174C36.6619 39.6645 35.322 38.3245 33.6691 38.3245C32.0162 38.3245 30.6763 39.6645 30.6763 41.3174C30.6763 42.9702 32.0162 44.3102 33.6691 44.3102Z" fill="#202124"/>
<path d="M41.317 44.3102C42.9699 44.3102 44.3098 42.9702 44.3098 41.3174C44.3098 39.6645 42.9699 38.3245 41.317 38.3245C39.6641 38.3245 38.3242 39.6645 38.3242 41.3174C38.3242 42.9702 39.6641 44.3102 41.317 44.3102Z" fill="#202124"/>
<path d="M25.9791 44.3102C27.632 44.3102 28.9719 42.9702 28.9719 41.3174C28.9719 39.6645 27.632 38.3245 25.9791 38.3245C24.3263 38.3245 22.9863 39.6645 22.9863 41.3174C22.9863 42.9702 24.3263 44.3102 25.9791 44.3102Z" fill="#202124"/>
<path d="M18.3307 44.3102C19.9836 44.3102 21.3235 42.9702 21.3235 41.3174C21.3235 39.6645 19.9836 38.3245 18.3307 38.3245C16.6778 38.3245 15.3379 39.6645 15.3379 41.3174C15.3379 42.9702 16.6778 44.3102 18.3307 44.3102Z" fill="#202124"/>
<path d="M10.6827 44.3102C12.3356 44.3102 13.6756 42.9702 13.6756 41.3174C13.6756 39.6645 12.3356 38.3245 10.6827 38.3245C9.02986 38.3245 7.68994 39.6645 7.68994 41.3174C7.68994 42.9702 9.02986 44.3102 10.6827 44.3102Z" fill="#202124"/>
<path d="M18.3307 21.3237C19.9836 21.3237 21.3235 19.9838 21.3235 18.3309C21.3235 16.6781 19.9836 15.3381 18.3307 15.3381C16.6778 15.3381 15.3379 16.6781 15.3379 18.3309C15.3379 19.9838 16.6778 21.3237 18.3307 21.3237Z" fill="#202124"/>
<path d="M10.6827 21.3237C12.3356 21.3237 13.6756 19.9838 13.6756 18.3309C13.6756 16.6781 12.3356 15.3381 10.6827 15.3381C9.02986 15.3381 7.68994 16.6781 7.68994 18.3309C7.68994 19.9838 9.02986 21.3237 10.6827 21.3237Z" fill="#202124"/>
<path d="M2.9928 21.3237C4.64568 21.3237 5.98561 19.9838 5.98561 18.3309C5.98561 16.6781 4.64568 15.3381 2.9928 15.3381C1.33992 15.3381 0 16.6781 0 18.3309C0 19.9838 1.33992 21.3237 2.9928 21.3237Z" fill="#202124"/>
<path d="M25.9791 21.3237C27.632 21.3237 28.9719 19.9838 28.9719 18.3309C28.9719 16.6781 27.632 15.3381 25.9791 15.3381C24.3263 15.3381 22.9863 16.6781 22.9863 18.3309C22.9863 19.9838 24.3263 21.3237 25.9791 21.3237Z" fill="#202124"/>
<path d="M33.6691 21.3237C35.322 21.3237 36.6619 19.9838 36.6619 18.3309C36.6619 16.6781 35.322 15.3381 33.6691 15.3381C32.0162 15.3381 30.6763 16.6781 30.6763 18.3309C30.6763 19.9838 32.0162 21.3237 33.6691 21.3237Z" fill="#202124"/>
<path d="M41.317 21.3237C42.9699 21.3237 44.3098 19.9838 44.3098 18.3309C44.3098 16.6781 42.9699 15.3381 41.317 15.3381C39.6641 15.3381 38.3242 16.6781 38.3242 18.3309C38.3242 19.9838 39.6641 21.3237 41.317 21.3237Z" fill="#202124"/>
<path d="M49.0069 21.3237C50.6598 21.3237 51.9998 19.9838 51.9998 18.3309C51.9998 16.6781 50.6598 15.3381 49.0069 15.3381C47.3541 15.3381 46.0142 16.6781 46.0142 18.3309C46.0142 19.9838 47.3541 21.3237 49.0069 21.3237Z" fill="#202124"/>
<path d="M18.3307 28.972C19.9836 28.972 21.3235 27.6321 21.3235 25.9792C21.3235 24.3263 19.9836 22.9864 18.3307 22.9864C16.6778 22.9864 15.3379 24.3263 15.3379 25.9792C15.3379 27.6321 16.6778 28.972 18.3307 28.972Z" fill="#BCB4FF"/>
<path d="M10.6827 28.972C12.3356 28.972 13.6756 27.6321 13.6756 25.9792C13.6756 24.3263 12.3356 22.9864 10.6827 22.9864C9.02986 22.9864 7.68994 24.3263 7.68994 25.9792C7.68994 27.6321 9.02986 28.972 10.6827 28.972Z" fill="#202124"/>
<path d="M2.9928 28.972C4.64568 28.972 5.98561 27.6321 5.98561 25.9792C5.98561 24.3263 4.64568 22.9864 2.9928 22.9864C1.33992 22.9864 0 24.3263 0 25.9792C0 27.6321 1.33992 28.972 2.9928 28.972Z" fill="#202124"/>
<path d="M25.9791 28.972C27.632 28.972 28.9719 27.6321 28.9719 25.9792C28.9719 24.3263 27.632 22.9864 25.9791 22.9864C24.3263 22.9864 22.9863 24.3263 22.9863 25.9792C22.9863 27.6321 24.3263 28.972 25.9791 28.972Z" fill="#202124"/>
<path d="M33.6691 28.972C35.322 28.972 36.6619 27.6321 36.6619 25.9792C36.6619 24.3263 35.322 22.9864 33.6691 22.9864C32.0162 22.9864 30.6763 24.3263 30.6763 25.9792C30.6763 27.6321 32.0162 28.972 33.6691 28.972Z" fill="#202124"/>
<path d="M41.317 28.972C42.9699 28.972 44.3098 27.6321 44.3098 25.9792C44.3098 24.3263 42.9699 22.9864 41.317 22.9864C39.6641 22.9864 38.3242 24.3263 38.3242 25.9792C38.3242 27.6321 39.6641 28.972 41.317 28.972Z" fill="#202124"/>
<path d="M49.0074 28.972C50.6603 28.972 52.0002 27.6321 52.0002 25.9792C52.0002 24.3263 50.6603 22.9864 49.0074 22.9864C47.3546 22.9864 46.0146 24.3263 46.0146 25.9792C46.0146 27.6321 47.3546 28.972 49.0074 28.972Z" fill="#202124"/>
<path d="M18.3307 36.6619C19.9836 36.6619 21.3235 35.322 21.3235 33.6691C21.3235 32.0162 19.9836 30.6763 18.3307 30.6763C16.6778 30.6763 15.3379 32.0162 15.3379 33.6691C15.3379 35.322 16.6778 36.6619 18.3307 36.6619Z" fill="#202124"/>
<path d="M10.6827 36.6619C12.3356 36.6619 13.6756 35.322 13.6756 33.6691C13.6756 32.0162 12.3356 30.6763 10.6827 30.6763C9.02986 30.6763 7.68994 32.0162 7.68994 33.6691C7.68994 35.322 9.02986 36.6619 10.6827 36.6619Z" fill="#202124"/>
<path d="M2.9928 36.6619C4.64568 36.6619 5.98561 35.322 5.98561 33.6691C5.98561 32.0162 4.64568 30.6763 2.9928 30.6763C1.33992 30.6763 0 32.0162 0 33.6691C0 35.322 1.33992 36.6619 2.9928 36.6619Z" fill="#202124"/>
<path d="M25.9791 36.6619C27.632 36.6619 28.9719 35.322 28.9719 33.6691C28.9719 32.0162 27.632 30.6763 25.9791 30.6763C24.3263 30.6763 22.9863 32.0162 22.9863 33.6691C22.9863 35.322 24.3263 36.6619 25.9791 36.6619Z" fill="#202124"/>
<path d="M33.6691 36.6619C35.322 36.6619 36.6619 35.322 36.6619 33.6691C36.6619 32.0162 35.322 30.6763 33.6691 30.6763C32.0162 30.6763 30.6763 32.0162 30.6763 33.6691C30.6763 35.322 32.0162 36.6619 33.6691 36.6619Z" fill="#202124"/>
<path d="M41.317 36.6619C42.9699 36.6619 44.3098 35.322 44.3098 33.6691C44.3098 32.0162 42.9699 30.6763 41.317 30.6763C39.6641 30.6763 38.3242 32.0162 38.3242 33.6691C38.3242 35.322 39.6641 36.6619 41.317 36.6619Z" fill="#202124"/>
<path d="M49.0069 36.6619C50.6598 36.6619 51.9998 35.322 51.9998 33.6691C51.9998 32.0162 50.6598 30.6763 49.0069 30.6763C47.3541 30.6763 46.0142 32.0162 46.0142 33.6691C46.0142 35.322 47.3541 36.6619 49.0069 36.6619Z" fill="#202124"/>
</svg>
