<svg width="390" height="388" viewBox="0 0 390 388" fill="none" xmlns="http://www.w3.org/2000/svg">
<path fill-rule="evenodd" clip-rule="evenodd" d="M294.057 79.6757C294.893 79.8376 295.764 80.495 295.903 81.6096C296.431 85.8249 297.575 92.9909 299.717 102.627C301.512 110.701 304.79 115.189 311.335 123.218C311.889 123.897 312.465 124.601 313.065 125.333C319.57 133.276 328.825 144.576 341.992 164.641C353.666 182.43 354.326 198.852 350.33 212.146C346.352 225.384 337.782 235.455 331.062 240.705C331.017 240.74 330.971 240.771 330.922 240.8C273.856 273.628 226.466 265.449 209.588 257.026C207.065 256.242 202.854 253.62 197.86 248.397C192.83 243.136 186.936 235.166 181.083 223.562C177.356 216.173 176.472 210.214 177.633 205.45C178.8 200.663 181.976 197.302 185.895 195.014C189.797 192.735 194.491 191.481 198.88 190.885C203.273 190.287 207.448 190.336 210.365 190.724C213.438 191.133 216.513 192.696 219.636 194.728C221.897 196.2 224.272 197.979 226.75 199.836C227.693 200.543 228.651 201.26 229.623 201.977C236.747 207.224 244.878 212.572 254.917 214.224C256.086 214.416 257.2 214.602 258.265 214.779C266.702 216.185 272.095 217.084 277.345 216.753C283.191 216.384 288.919 214.477 298.472 209.765C305.762 206.17 309.017 200.404 310.155 194.609C311.305 188.76 310.289 182.891 309.003 179.305C308.994 179.281 308.987 179.257 308.98 179.234C308.975 179.217 308.971 179.201 308.967 179.184C308.414 176.922 306.129 171.636 300.978 163.378C295.849 155.157 287.927 144.068 276.186 130.219C265.483 117.594 259.824 108.212 257.19 101.444C254.584 94.7525 254.829 90.3135 256.533 87.9141C257.035 87.2076 257.851 86.9821 258.571 87.1862C259.241 87.3762 259.771 87.9109 259.983 88.5926L262.379 96.2831L266.289 74.0708C266.745 71.4784 270.545 71.7376 270.646 74.3678L271.014 84.0394L275.444 70.1612C276.174 67.8773 279.513 68.2481 279.723 70.6363L281.158 86.9254L284.084 75.4285C284.704 72.9895 288.273 73.3422 288.404 75.8555L288.932 85.9661L291.625 80.815C292.153 79.8034 293.216 79.5131 294.057 79.6757ZM293.571 82.261C294.128 86.5965 295.281 93.7064 297.379 103.147C299.304 111.808 302.904 116.667 309.478 124.731C310.033 125.411 310.609 126.115 311.209 126.848C317.701 134.773 326.892 145.996 339.99 165.955C351.266 183.139 351.832 198.825 348.036 211.457C344.237 224.101 336.042 233.753 329.653 238.766C273.243 271.186 226.728 262.91 210.644 254.876C210.528 254.818 210.419 254.776 210.305 254.741C208.342 254.134 204.465 251.839 199.591 246.742C194.747 241.675 188.984 233.907 183.221 222.483C179.644 215.392 178.981 210.035 179.96 206.017C180.933 202.024 183.582 199.138 187.103 197.082C190.64 195.017 194.998 193.83 199.202 193.258C203.402 192.687 207.362 192.741 210.049 193.098C212.579 193.435 215.286 194.755 218.329 196.736C220.519 198.161 222.796 199.868 225.248 201.704C226.205 202.421 227.188 203.158 228.202 203.905C235.365 209.181 243.888 214.836 254.528 216.587C255.703 216.781 256.827 216.968 257.907 217.148C266.262 218.543 271.954 219.493 277.496 219.143C283.822 218.745 289.893 216.667 299.531 211.914C307.594 207.937 311.247 201.478 312.506 195.07C313.748 188.746 312.669 182.464 311.278 178.554C310.608 175.878 308.147 170.345 303.01 162.11C297.81 153.774 289.816 142.592 278.013 128.67C267.397 116.148 261.922 106.997 259.422 100.575C257.36 95.2797 257.39 92.0377 257.999 90.2771L260.337 97.7806C261.021 99.9784 264.196 99.7754 264.595 97.5083L268.323 76.3306L268.664 85.2683C268.758 87.7255 272.202 88.1949 272.95 85.8524L277.424 71.8353L278.875 88.3043C279.092 90.7663 282.581 91.0483 283.19 88.6531L286.081 77.2935L286.578 86.8199C286.694 89.0513 289.681 89.7029 290.716 87.7227L293.571 82.261Z" fill="#202124"/>
<path fill-rule="evenodd" clip-rule="evenodd" d="M67.2688 95.8879C66.6126 93.5683 69.6322 92.0393 71.1137 93.941L78.5873 103.535L73.2416 90.2002C72.9857 89.5619 73.0032 88.7358 73.5495 88.1416C73.8318 87.8345 74.2317 87.6312 74.6885 87.6136C75.1345 87.5964 75.529 87.7585 75.8374 87.9818C76.9028 88.7534 78.1001 90.0865 79.3324 91.685C80.5831 93.3073 81.9353 95.2904 83.3046 97.4397C85.893 101.503 88.5758 106.212 90.7968 110.316L90.035 100.809C89.9589 99.8594 90.4722 99.0444 91.2411 98.6883C92.034 98.3212 93.0205 98.4841 93.6651 99.2613C96.9424 103.213 98.8219 108.785 99.8618 114.082C100.907 119.404 101.133 124.601 101.002 127.933C101.001 127.949 101 127.965 100.999 127.98C98.7713 156.323 101.793 178.932 103.558 186.614C103.567 186.654 103.574 186.695 103.579 186.736C104.518 194.385 106.851 205.873 110.776 215.47C112.74 220.272 115.075 224.53 117.78 227.595C120.483 230.657 123.46 232.429 126.738 232.526C133.652 232.73 140.453 228.547 146.265 222.927C152.044 217.34 156.64 210.529 159.124 205.926C159.273 205.65 159.476 205.418 159.707 205.238C167.113 199.456 174.092 197.289 180.046 197.926C186.022 198.565 190.775 202.011 193.7 207.051C199.531 217.098 198.118 233.365 185.464 247.19C172.882 260.937 159.666 267.294 147.117 269.467C134.593 271.636 122.82 269.624 113.123 266.78C93.3535 260.982 73.8817 237.916 71.5706 205.904C69.7478 180.656 66.2694 153.295 64.7578 142.769C62.8315 130.481 61.301 122.395 60.1731 117.285C59.6087 114.728 59.1478 112.929 58.7917 111.726C58.6134 111.124 58.4654 110.686 58.3483 110.384C58.2407 110.106 58.1841 110.01 58.186 110.009C58.1864 110.009 58.1901 110.014 58.1971 110.023C57.8084 109.524 57.8747 108.808 58.3486 108.389C58.8225 107.97 59.5405 107.992 59.9881 108.439L65.3925 113.835L61.9291 102.272C61.2197 99.9042 64.3582 98.352 65.8098 100.353L70.2724 106.506L67.2688 95.8879ZM69.8515 96.2184L72.8828 106.935C73.5505 109.295 70.433 110.807 68.9927 108.821L64.5608 102.711L67.9136 113.904C68.5678 116.088 65.8721 117.699 64.2589 116.088L61.776 113.609C62.0004 114.514 62.2457 115.562 62.512 116.768C63.6547 121.945 65.1942 130.086 67.1253 142.406C67.1261 142.411 67.1268 142.416 67.1276 142.421C68.6437 152.976 72.1311 180.403 73.9597 205.731C76.2133 236.947 95.1667 259.018 113.797 264.482C123.299 267.269 134.677 269.191 146.708 267.107C158.714 265.028 171.459 258.944 183.697 245.573C195.815 232.333 196.817 217.193 191.628 208.253C189.044 203.8 184.928 200.857 179.792 200.308C174.641 199.757 168.276 201.596 161.21 207.103C158.631 211.875 153.904 218.873 147.93 224.649C141.971 230.41 134.564 235.153 126.667 234.92C122.493 234.797 118.942 232.532 115.984 229.18C113.03 225.833 110.573 221.302 108.559 216.377C104.538 206.547 102.169 194.871 101.209 187.089C99.3857 179.101 96.373 156.302 98.6093 127.816C98.7315 124.65 98.5143 119.653 97.5114 114.544C96.5834 109.816 95.0068 105.12 92.5074 101.675L93.2496 110.937C93.4422 113.341 90.1916 114.248 89.0714 112.163C86.7952 107.927 83.9807 102.959 81.2845 98.7267C79.9359 96.61 78.6262 94.692 77.4354 93.1475C77.1355 92.7585 76.8471 92.3983 76.571 92.0681L81.3366 103.956C82.2829 106.316 79.1294 108.128 77.5665 106.122L69.8515 96.2184Z" fill="#202124"/>
<path d="M141.654 140.915C151.855 123.934 174.313 129.584 188.403 136.621C190.7 137.768 190.865 141.26 189.473 143.417C189.06 144.057 188.679 144.725 188.33 145.397C187.802 146.416 190.06 147.981 191.025 147.36C195.413 144.536 202.888 140.727 214.749 136.454C233.52 129.692 250.247 137.136 257.548 142.563C258.499 143.269 259.341 144.117 260.05 145.066C266.172 153.264 264.283 159.61 260.679 163.665C257.543 167.194 252.517 167.833 247.917 168.893C242.607 170.116 240.791 171.975 240.503 173.298C240.409 173.731 240.802 174.052 241.244 174.067C243.867 174.159 251.337 174.339 265.901 174.512C282.222 174.706 285.49 190.452 285.084 198.301C283.306 214.267 267.809 218.31 256.098 218.377C251.322 218.404 246.774 216.675 242.486 214.573C224.763 205.886 220.217 208.296 220.239 211.038C220.24 211.175 220.281 211.307 220.351 211.425C223.898 217.442 239.035 220.955 246.322 221.981C246.386 221.99 246.449 222.006 246.511 222.027C266.452 229.014 257.415 250.8 250.39 260.835C244.399 267.627 223.965 281.593 190.162 283.115C147.909 285.018 143.655 260.486 144.727 251.796C145.799 243.107 150.735 241.9 166.98 238.219C179.684 235.34 180.435 230.589 179.172 228.431C179.115 228.333 179.035 228.25 178.943 228.184C172.521 223.562 160.172 229.095 151.994 234.165C149.006 236.018 145.695 237.417 142.18 237.466C122.023 237.751 111.815 227.579 107.551 218.696C105.362 214.135 105.224 208.84 106.618 203.976C113.795 178.933 143.525 173.19 163.883 173.61C146.533 171.151 140.435 160.969 139.149 152.705C138.515 148.637 139.534 144.444 141.654 140.915Z" fill="#202124"/>
<path fill-rule="evenodd" clip-rule="evenodd" d="M193.05 177.087C193.649 177.292 193.985 177.927 193.817 178.538L188.19 199.014L197.057 198.142C197.715 198.078 198.302 198.559 198.366 199.217C198.431 199.875 197.95 200.461 197.292 200.526L188.135 201.427C186.603 201.577 185.395 200.145 185.803 198.66L189.091 186.696C188.822 186.982 188.553 187.241 188.283 187.475C186.347 189.149 184.326 189.536 182.427 188.864C180.646 188.234 179.174 186.741 178.029 185.111C176.866 183.455 175.937 181.511 175.292 179.749C175.064 179.128 175.383 178.44 176.004 178.213C176.625 177.985 177.313 178.304 177.54 178.925C178.134 180.544 178.975 182.291 179.989 183.734C181.022 185.204 182.135 186.22 183.226 186.606C184.197 186.949 185.332 186.86 186.716 185.663C188.166 184.408 189.82 181.979 191.555 177.764C191.796 177.179 192.451 176.882 193.05 177.087Z" fill="#E9FC88"/>
<path fill-rule="evenodd" clip-rule="evenodd" d="M218.165 177.166C218.754 177.468 218.986 178.19 218.684 178.778C216.713 182.616 214.819 185.102 212.981 186.493C211.084 187.927 209.187 188.227 207.454 187.546C205.827 186.908 204.566 185.488 203.631 183.975C202.68 182.436 201.971 180.648 201.511 179.04C201.329 178.404 201.697 177.741 202.333 177.559C202.968 177.377 203.631 177.744 203.814 178.38C204.231 179.837 204.862 181.41 205.668 182.715C206.491 184.046 207.406 184.954 208.329 185.317C209.147 185.638 210.175 185.611 211.536 184.583C212.954 183.51 214.648 181.395 216.553 177.684C216.855 177.096 217.577 176.864 218.165 177.166Z" fill="#E9FC88"/>
<path fill-rule="evenodd" clip-rule="evenodd" d="M215.028 198.085C215.623 198.373 215.872 199.089 215.584 199.685C213.223 204.567 209.407 207.186 205.63 208.458C201.886 209.719 198.159 209.668 195.822 209.22C195.172 209.096 194.746 208.468 194.871 207.819C194.995 207.169 195.623 206.744 196.272 206.868C198.255 207.248 201.559 207.302 204.865 206.188C208.139 205.086 211.392 202.851 213.428 198.642C213.716 198.046 214.432 197.797 215.028 198.085Z" fill="#E9FC88"/>
<path d="M186.725 286.038L200.446 291.99L193.059 309.02C192.05 311.346 189.347 312.413 187.021 311.404L178.78 307.83L187.419 322.021L159.167 387.152C158.97 387.607 158.47 387.857 158.015 387.66C142.374 380.855 145.808 304.372 144.85 277.084C144.817 276.162 145.962 275.673 146.628 276.311C163.026 292.004 178.48 291.6 185.684 286.172C185.985 285.946 186.38 285.888 186.725 286.038Z" fill="#202124"/>
<path d="M209.632 285.659C219.308 291.904 236.735 282.537 243.505 275.648C244.143 275 245.359 275.358 245.456 276.262C250.721 325.513 240.012 370.527 232.992 378.229C232.556 378.708 231.853 378.457 231.646 377.843L214.222 325.996C213.187 322.915 213.518 319.539 215.133 316.719L219.759 308.637L213.894 310.608C211.491 311.416 208.888 310.123 208.08 307.719L202.293 290.501L208.403 285.694C208.757 285.416 209.254 285.414 209.632 285.659Z" fill="#202124"/>
</svg>
