<svg width="559" height="270" viewBox="0 0 559 270" fill="none" xmlns="http://www.w3.org/2000/svg">
<path fill-rule="evenodd" clip-rule="evenodd" d="M320.229 71.5997C321.357 71.1028 322.933 71.1672 324.017 72.3772C328.118 76.9528 335.381 84.5287 345.866 94.2189C354.65 102.338 362.244 104.972 376.638 109.124C377.856 109.475 379.121 109.837 380.437 110.213C394.713 114.295 415.025 120.104 447.206 133.107C475.676 144.611 490.473 162.404 497.173 180.371C503.848 198.27 502.435 216.195 498.765 227.996C498.481 228.909 497.51 229.42 496.596 229.136C495.683 228.851 495.173 227.881 495.457 226.967C498.937 215.778 500.293 198.652 493.927 181.581C487.586 164.578 473.53 147.481 445.908 136.319C413.897 123.384 393.725 117.616 379.479 113.542C378.163 113.166 376.897 112.804 375.678 112.452C361.219 108.282 352.937 105.472 343.514 96.763C333.243 87.2696 326.015 79.7676 321.782 75.0724L322.887 83.9171C323.288 87.1239 319.201 88.8099 317.224 86.2533L308.785 75.3387L314.708 91.2231C315.956 94.5724 311.577 97.1113 309.291 94.3633L293.999 75.9819L300.228 96.3302C301.269 99.7307 296.788 102.01 294.652 99.1666L286.884 88.823L299.899 117.068C301.293 120.092 297.686 122.949 295.061 120.9L286.101 113.906C286.828 116.501 289.462 120.38 296.276 124.976C304.538 130.55 318.586 136.916 341.521 143.056C367.02 149.881 385.734 156.589 398.782 162.213C411.674 167.77 419.158 172.321 422.159 174.949C427.171 178.564 433.027 186.246 436.136 195.746C439.28 205.351 439.671 216.989 433.383 228.322C432.919 229.158 431.865 229.46 431.028 228.996C430.192 228.532 429.89 227.478 430.354 226.641C436.077 216.326 435.756 205.721 432.844 196.823C429.912 187.866 424.409 180.814 420.072 177.715C420.042 177.694 420.014 177.672 419.986 177.65C419.967 177.634 419.948 177.618 419.93 177.602C417.409 175.368 410.338 170.966 397.411 165.394C384.542 159.847 365.99 153.192 340.625 146.402C317.502 140.212 303.046 133.721 294.339 127.848C285.729 122.04 282.363 116.562 282.411 112.306C282.426 111.052 283.211 110.111 284.235 109.761C285.188 109.435 286.258 109.634 287.072 110.269L286.006 111.635L287.072 110.269L296.255 117.437L282.604 87.8126C281.011 84.3552 285.742 81.5328 288.027 84.5767L296.433 95.7696L290.266 75.623C289.251 72.3074 293.526 69.9971 295.744 72.6627L310.869 90.8434L304.875 74.767C303.603 71.3565 308.136 68.8358 310.363 71.7153L319.319 83.2992L318.276 74.9575C318.072 73.3194 319.096 72.0986 320.229 71.5997Z" fill="#202124"/>
<path fill-rule="evenodd" clip-rule="evenodd" d="M258.842 42.466C261.274 39.968 265.371 42.6465 264.059 45.8765L257.438 62.1714L270.283 45.8399C270.898 45.0581 271.945 44.4832 273.085 44.7383C273.673 44.8701 274.217 45.2243 274.569 45.7839C274.913 46.3302 274.995 46.9416 274.938 47.4894C274.741 49.3816 273.936 51.8447 272.823 54.5437C271.694 57.2827 270.187 60.4095 268.483 63.678C265.263 69.8563 261.301 76.6199 257.764 82.3678L269.125 74.5444C270.259 73.7631 271.651 73.8175 272.653 74.5235C273.686 75.2516 274.194 76.6053 273.686 77.9745C271.103 84.9354 265.48 91.3159 259.594 96.4461C253.681 101.6 247.334 105.638 243.064 107.882C243.051 107.888 243.038 107.895 243.025 107.902C243.018 107.905 243.011 107.909 243.004 107.912C205.884 125.598 179.741 145.719 171.392 153.48C171.348 153.52 171.302 153.559 171.254 153.595C162.554 160.143 151.661 174.111 144.214 188.864C140.5 196.221 137.691 203.681 136.429 210.416C135.161 217.185 135.498 222.991 137.783 227.238C138.236 228.081 137.921 229.131 137.078 229.584C136.236 230.038 135.185 229.722 134.732 228.88C131.909 223.631 131.69 216.898 133.024 209.778C134.364 202.623 137.314 194.844 141.121 187.303C148.695 172.299 159.849 157.874 169.099 150.881C177.789 142.825 204.178 122.578 241.483 104.799C245.538 102.665 251.642 98.7824 257.318 93.8347C262.571 89.2565 267.316 83.8879 269.825 78.2679L258.757 85.8896C255.885 87.8677 252.401 84.45 254.203 81.5404C257.866 75.6281 262.057 68.5124 265.411 62.0769C267.089 58.8579 268.546 55.8313 269.62 53.2236C269.891 52.5668 270.134 51.9451 270.348 51.3607L258.897 65.92C256.624 68.8111 252.075 66.1694 253.459 62.7617L260.294 45.9406L249.058 57.4807L247.817 56.2724L249.058 57.4807C246.583 60.0226 242.436 57.2092 243.883 53.97L248.337 44.0027L236.735 56.2906C234.472 58.6879 230.506 56.4743 231.359 53.2894L232.671 48.3875C231.7 49.3221 230.564 50.3868 229.244 51.5922C223.584 56.7637 214.497 64.5742 200.457 75.8945C200.451 75.8991 200.446 75.9037 200.44 75.9083C188.311 85.4338 156.467 109.619 126.056 130.209C107.36 142.867 93.6353 160.402 85.4307 178.232C77.2106 196.097 74.6069 214.084 77.8953 227.651C78.1206 228.581 77.5496 229.517 76.6199 229.742C75.6902 229.968 74.7539 229.397 74.5286 228.467C71.0005 213.911 73.8533 195.106 82.2837 176.784C90.7297 158.429 104.85 140.383 124.114 127.34C154.43 106.815 186.196 82.6892 198.291 73.1909C212.295 61.8994 221.32 54.1398 226.908 49.0348C229.703 46.4804 231.625 44.603 232.873 43.2884C233.499 42.6299 233.941 42.1278 234.235 41.7627C234.506 41.4269 234.585 41.287 234.588 41.2885C234.588 41.2889 234.585 41.2971 234.579 41.3123C234.923 40.4648 235.867 40.0312 236.734 40.3222C237.602 40.6132 238.093 41.5285 237.856 42.4122L235 53.0819L246.985 40.3887C249.439 37.7889 253.652 40.5997 252.193 43.8641L247.709 53.9005L258.842 42.466Z" fill="#202124"/>
<path d="M196.725 0.523531C196.808 -0.17451 197.821 -0.17451 197.904 0.523531L198.598 6.37947C199.496 13.9411 205.457 19.9028 213.019 20.8L218.875 21.4948C219.573 21.5777 219.573 22.5906 218.875 22.6735L213.019 23.3684C205.457 24.2656 199.496 30.2273 198.598 37.7888L197.904 43.6448C197.821 44.3429 196.808 44.3429 196.725 43.6448L196.03 37.7888C195.133 30.2273 189.171 24.2656 181.609 23.3684L175.754 22.6735C175.055 22.5906 175.055 21.5777 175.754 21.4948L181.609 20.8C189.171 19.9028 195.133 13.9411 196.03 6.37947L196.725 0.523531Z" fill="#FFFEEC"/>
</svg>
