<svg width="252" height="139" viewBox="0 0 252 139" fill="none" xmlns="http://www.w3.org/2000/svg">
<path d="M91.8423 66.3681C97.621 53.7429 113.706 55.9242 124.07 59.7249C125.76 60.3445 126.147 62.7639 125.346 64.3754C125.108 64.8533 124.895 65.3481 124.705 65.8439C124.416 66.5947 126.112 67.508 126.735 67.0001C129.571 64.6901 134.48 61.4533 142.409 57.5503C154.955 51.3739 167.188 55.2523 172.698 58.4617C173.415 58.8795 174.068 59.4046 174.635 60.0102C179.541 65.2425 178.72 69.8101 176.527 72.9162C174.618 75.6193 171.167 76.4572 168.046 77.5549C164.443 78.8217 163.323 80.2579 163.226 81.2024C163.194 81.5111 163.493 81.7038 163.802 81.68C165.636 81.5389 170.853 81.0808 181.011 80.0638C192.395 78.9241 195.902 89.6365 196.232 95.1351C196.241 106.396 185.762 110.422 177.61 111.384C174.286 111.776 170.982 110.927 167.831 109.798C154.808 105.131 151.83 107.165 152.059 109.073C152.071 109.169 152.109 109.257 152.167 109.334C155.108 113.248 165.926 114.512 171.082 114.658C171.127 114.659 171.171 114.665 171.215 114.675C173.618 115.225 175.493 116.124 176.932 117.274C177.408 117.655 177.112 118.36 176.503 118.36H71.9806C71.5875 96.245 94.3457 88.8241 109.88 87.4051C97.6028 87.0476 92.5597 80.4316 91.018 74.7761C90.259 71.9918 90.6413 68.9921 91.8423 66.3681Z" fill="#2D2D2D"/>
<path fill-rule="evenodd" clip-rule="evenodd" d="M100.196 99.7768C100.611 99.5695 101.115 99.7375 101.322 100.152C101.738 100.984 102.45 102.372 103.414 103.744C104.387 105.129 105.564 106.421 106.882 107.134C108.148 107.82 109.55 107.981 111.148 107.11C112.812 106.202 114.761 104.133 116.9 100.132L118.456 100.723L113.979 119.47C113.872 119.921 113.419 120.199 112.968 120.092C112.517 119.984 112.239 119.531 112.346 119.08L115.658 105.212C114.404 106.825 113.168 107.92 111.952 108.583C109.798 109.758 107.789 109.535 106.083 108.611C104.428 107.715 103.069 106.174 102.04 104.709C101.001 103.23 100.244 101.75 99.8202 100.903C99.6129 100.488 99.781 99.9841 100.196 99.7768Z" fill="white"/>
<path fill-rule="evenodd" clip-rule="evenodd" d="M51.2653 25.9279L53.4251 33.9502C53.7558 35.1785 52.2642 36.0666 51.342 35.1905L43.5901 27.8261L45.59 34.1591C45.9541 35.3123 44.6414 36.2659 43.6574 35.5629L40.3608 33.2083L44.3618 39.4955C45.139 40.7168 43.5791 42.0696 42.48 41.1276L38.297 37.5421C38.7823 40.4654 40.6468 45.6627 45.8128 51.8618C46.7612 52.9999 47.5148 54.7084 48.1297 56.7596C48.7498 58.8284 49.2511 61.3237 49.6538 64.0991C50.4592 69.6511 50.8802 76.3971 51.0438 83.2428C51.3709 96.929 50.6712 111.117 49.9183 117.141C49.8608 117.601 49.4413 117.927 48.9812 117.869C48.5212 117.812 48.1949 117.392 48.2524 116.932C48.9918 111.017 49.6912 96.916 49.3654 83.2829C49.2025 76.469 48.7841 69.7978 47.9923 64.3402C47.5963 61.6108 47.1095 59.2033 46.5215 57.2417C45.9282 55.2626 45.2536 53.8133 44.523 52.9366C38.4069 45.5973 36.6436 39.4583 36.4886 36.4718C36.4609 35.9381 36.7666 35.4971 37.1988 35.3065C37.6188 35.1213 38.1252 35.1837 38.5027 35.5072L37.9564 36.1445M51.2653 25.9279L57.4398 35.3713C58.0061 36.2374 59.3174 36.0885 59.6752 35.1175L62.3081 27.9709C62.7336 30.0065 63.2108 32.4488 63.6091 34.8172C64.1096 37.7927 64.4751 40.5915 64.4751 42.3259C64.4751 44.9364 65.3327 50.3362 66.3075 55.6973C67.1301 60.2219 68.0514 64.7963 68.6568 67.8023C68.7734 68.3811 68.8783 68.9018 68.9685 69.3528C69.8636 73.8284 76.7814 107.695 78.276 114.42C78.3766 114.873 78.825 115.158 79.2776 115.058C79.7302 114.957 80.0155 114.509 79.9149 114.056C78.4249 107.351 71.5105 73.502 70.6148 69.0235C70.5241 68.5699 70.4188 68.0472 70.3019 67.4667C69.6963 64.4596 68.7788 59.9041 67.9593 55.397C66.9753 49.9852 66.154 44.7521 66.154 42.3259C66.154 40.4354 65.7647 37.5108 65.2648 34.5388C64.7618 31.5484 64.136 28.4491 63.643 26.1792C63.3715 24.9291 61.6666 24.8559 61.2394 26.0155L58.3883 33.7541L51.2292 22.8048C50.4452 21.6058 48.587 22.438 48.9594 23.8213L51.4158 32.9449L43.5673 25.4888C42.6244 24.593 41.1077 25.5407 41.4994 26.7809L43.6106 33.4663L39.5788 30.5865C38.4525 29.782 37.0416 31.1195 37.7846 32.2872L41.4311 38.0172L38.5027 35.5072" fill="#2D2D2D"/>
<path fill-rule="evenodd" clip-rule="evenodd" d="M124.279 100.327C124.699 100.13 125.199 100.311 125.395 100.731C126.068 102.165 127.027 103.736 128.198 105.065C129.374 106.4 130.719 107.439 132.153 107.899C133.55 108.346 135.094 108.265 136.778 107.251C138.496 106.217 140.394 104.191 142.372 100.675C142.599 100.271 143.111 100.128 143.515 100.355C143.919 100.583 144.062 101.094 143.835 101.499C141.783 105.147 139.707 107.448 137.644 108.69C135.548 109.951 133.503 110.094 131.64 109.497C129.814 108.912 128.228 107.638 126.938 106.175C125.643 104.706 124.602 102.994 123.875 101.443C123.679 101.023 123.859 100.524 124.279 100.327Z" fill="white"/>
<path d="M207.181 108.642C198.227 109.314 195.988 114.705 195.988 117.316V126.715C195.988 127.116 196.496 127.289 196.741 126.971L201.055 121.362C201.269 121.084 201.71 121.176 201.795 121.516L204.523 132.427C204.629 132.854 205.238 132.85 205.338 132.421L206.854 125.982C206.949 125.575 207.518 125.544 207.658 125.938L211.122 135.721C211.28 136.165 211.938 136.052 211.938 135.58V124.509C211.938 124.048 212.573 123.924 212.746 124.351L215.886 132.107C216.059 132.535 216.694 132.411 216.694 131.95V126.074C216.694 125.651 217.25 125.494 217.472 125.855L220.321 130.485C220.548 130.854 221.129 130.68 221.12 130.247C221.026 125.829 221.172 118.945 221.172 117.316C221.171 112.839 218.373 107.803 207.181 108.642Z" fill="#FFFEEC"/>
<path fill-rule="evenodd" clip-rule="evenodd" d="M217.842 111.636C215.976 110.112 212.728 109.068 207.244 109.479C202.936 109.802 200.345 111.249 198.834 112.831C197.307 114.43 196.828 116.222 196.828 117.316V125.481L200.39 120.85C201.032 120.016 202.354 120.291 202.609 121.313L204.918 130.545L206.036 125.79C206.324 124.567 208.03 124.474 208.449 125.658L211.098 133.138V124.509C211.098 123.125 213.005 122.754 213.525 124.036L215.855 129.794V126.074C215.855 124.805 217.521 124.333 218.187 125.415L220.259 128.782C220.229 125.741 220.277 122.046 220.308 119.61C220.322 118.56 220.332 117.744 220.332 117.316C220.332 115.249 219.691 113.145 217.842 111.636ZM218.904 110.335C221.253 112.253 222.011 114.906 222.011 117.316C222.011 117.774 222 118.621 221.986 119.7C221.949 122.553 221.892 127.029 221.959 130.229C221.987 131.502 220.29 132.036 219.606 130.925L217.534 127.557V131.95C217.534 133.333 215.627 133.705 215.108 132.422L212.777 126.664V135.58C212.777 136.995 210.803 137.335 210.331 136.001L207.343 127.565L206.156 132.614C205.853 133.899 204.029 133.911 203.708 132.631L201.191 122.562L197.406 127.483C196.673 128.436 195.149 127.918 195.149 126.715V117.316C195.149 115.8 195.788 113.59 197.62 111.672C199.466 109.738 202.472 108.153 207.118 107.805C212.826 107.377 216.573 108.432 218.904 110.335Z" fill="#2D2D2D"/>
</svg>
