<svg width="98" height="46" viewBox="0 0 98 46" fill="none" xmlns="http://www.w3.org/2000/svg">
<path d="M29.2484 33.1873C30.8584 34.1756 31.0238 35.8584 31.4046 37.5679C31.5841 37.1167 31.6978 36.7723 31.8592 36.45C32.0206 36.1278 32.1491 35.7476 32.4128 35.564C32.6969 35.3668 33.118 35.3702 33.4795 35.2861C33.5028 35.6157 33.6466 36.0016 33.5249 36.2642C33.2601 36.8359 32.86 37.344 32.4628 37.9612C33.4289 37.9044 33.9654 37.1854 34.6099 36.6734C34.944 37.2315 34.6968 37.4986 33.0186 38.4664C33.8517 38.8779 34.7264 39.2842 35.576 39.7434C35.8602 39.8963 36.1693 40.1412 36.2892 40.4203C36.5586 41.0488 37.0195 41.0642 37.5816 41.0454C38.5364 41.0102 39.4934 41.0278 40.4493 41.0358C40.626 41.0358 40.8028 41.0989 40.9795 41.133L41 41.3921C40.7335 41.4529 40.4675 41.5626 40.2004 41.5626C37.061 41.5797 33.9211 41.5734 30.7811 41.587C27.6821 41.6007 24.5825 41.6501 21.4829 41.6473C17.154 41.6427 12.8252 41.5905 8.49632 41.5865C6.58848 41.5865 4.68065 41.6564 2.77338 41.6604C1.85612 41.6604 0.938289 41.5853 0.0210277 41.5467L0 41.3194C0.317688 41.2949 0.634809 41.2563 0.953066 41.2495C3.23883 41.2017 5.52517 41.1642 7.8115 41.1114C7.99222 41.1074 8.27354 41.0636 8.33605 40.9466C8.98791 39.719 10.1643 39.2609 11.3578 38.8176C11.4426 38.7803 11.525 38.7375 11.6044 38.6898L9.84721 37.9265L9.92336 37.6833L12.4467 38.3192C11.9971 37.8288 11.6664 37.548 11.4504 37.1968C11.3447 37.0263 11.3618 36.6285 11.4896 36.5012C11.6334 36.3568 12.0324 36.2841 12.2017 36.383C12.6831 36.6632 13.1042 37.0473 13.5805 37.4145C15.6463 37.6799 17.3217 36.8177 18.5686 35.0486C18.0918 34.2796 18.2304 33.5141 18.9664 32.802C19.5755 32.2183 20.1513 31.6009 20.6912 30.9527C20.9799 30.6021 21.2942 30.0872 20.8805 29.7109C20.7401 29.5842 20.082 29.861 19.7853 30.1054C18.9505 30.7907 18.381 31.6876 18.0059 32.7071C17.9332 32.9055 17.815 33.1299 17.6496 33.2442C15.9771 34.3973 14.1704 34.7911 12.2211 34.0637C11.8619 33.9296 11.4857 33.6619 11.2754 33.3493C10.9702 32.8947 10.5934 32.9197 10.1427 32.8799C8.93108 32.7725 7.69897 32.6946 6.52426 32.4087C4.63461 31.949 3.55425 30.4833 2.65176 28.8852C0.885436 25.7594 1.19858 22.6854 2.86886 19.6216C3.91911 17.6962 5.32114 16.0413 6.72374 14.3835C7.63816 13.3037 8.48552 12.1557 9.45166 11.1248C10.3166 10.2035 10.6451 9.06915 11.0208 7.93479C11.2424 7.26305 11.4692 7.12779 11.9869 7.34602C12.2938 6.95956 12.5558 6.55549 12.8968 6.2378C12.9809 6.16108 13.3406 6.385 13.4651 6.43046C13.7413 6.09345 14.0471 5.72064 14.3522 5.34725L15.0911 6.20825C15.6594 6.16847 15.8793 6.2952 15.8594 7.05675C15.8378 7.86717 15.6474 8.6736 15.5292 9.49596C15.4991 9.48516 15.5406 9.51699 15.5673 9.50789C15.8748 9.39707 16.1817 9.28341 16.4891 9.16974C16.4823 9.53801 16.5727 9.94152 16.4533 10.2689C15.8168 12.0119 14.3181 13.044 13.1002 14.3261C10.8992 16.6403 8.73388 19.0067 7.0761 21.7613C6.70726 22.3734 6.48164 23.1054 6.33729 23.8118C6.03665 25.2775 6.70385 26.2795 8.15931 26.6483C9.28628 26.9325 10.4326 27.0944 11.5692 26.7171C11.9341 26.5966 12.3228 26.4477 12.6069 26.2056C13.535 25.4099 14.529 24.7433 15.6992 24.3597C15.8444 24.3056 15.9838 24.2369 16.1152 24.1545C16.164 24.1261 16.1925 24.0636 16.1788 23.867C15.735 23.9948 15.2752 24.0823 14.8512 24.2574C13.9181 24.6433 13.019 24.9144 11.9915 24.5075C10.0842 23.7516 9.49712 21.7551 10.798 20.1371C12.1944 18.3981 14.1045 17.9741 16.2822 18.0798L15.7776 19.5006C16.0271 19.3636 16.1754 19.3335 16.2101 19.2551C17.141 17.0114 18.8527 15.5377 20.9339 14.4204C22.0739 13.7915 23.4094 13.6167 24.6729 13.9311C25.2707 14.0732 25.8095 14.4261 25.9232 15.0922C26.0613 15.885 26.0578 16.6834 25.4225 17.3137C25.0917 17.6411 24.7331 17.9389 24.4023 18.2673C24.2944 18.3748 24.2358 18.531 24.2671 18.7788C24.4052 18.7015 24.545 18.6265 24.6814 18.5458C25.5339 18.0423 26.3573 17.4819 27.2422 17.0449C28.7056 16.322 30.622 16.9596 31.2454 18.4373C31.4932 19.0249 31.3818 19.7649 31.4335 20.4332C32.8685 19.1795 34.0063 17.6712 34.0546 15.5866C34.0972 13.7288 33.2397 12.6314 31.4114 12.0801C29.3751 11.4674 27.2951 11.2464 25.1662 11.2123C23.4612 11.185 21.7466 10.9912 20.065 10.7008C19.1466 10.5428 18.2753 10.0609 17.4138 9.65793C17.1864 9.55165 17.079 9.19589 16.9159 8.95492C17.2029 8.86115 17.4888 8.76397 17.7775 8.67588C17.8343 8.65769 17.9065 8.67588 18.0554 8.67588C17.5791 8.26158 17.1461 7.90695 16.7403 7.52163C16.5005 7.2943 16.2624 7.04254 16.1021 6.75781C15.8606 6.32817 15.6474 5.84851 16.2822 5.74053C16.3038 5.30861 16.3215 4.95171 16.3391 4.5948L17.6911 4.90738C17.898 4.17823 18.0713 4.15436 19.2983 4.81872C19.6461 4.16857 20.1144 4.28223 20.5742 4.68744C22.5508 6.41967 25.0389 6.35715 27.4201 6.61232C28.9858 6.77884 30.5742 6.72599 32.1434 6.87148C34.9929 7.13233 37.4406 8.26385 39.1337 10.6309C40.3197 12.287 40.5425 14.2368 40.122 16.1884C39.4809 19.1596 38.388 21.9625 36.5921 24.4563C35.3174 26.226 33.6903 27.6264 32.0098 28.9863C31.5461 29.3614 31.2324 29.9218 30.8544 30.4009C30.073 31.392 29.3262 32.4122 28.5079 33.372C27.0956 35.0287 25.2577 36.0431 23.1981 36.6575C22.5508 36.8501 21.8552 36.8803 21.2198 36.9786V41.0523H23.6465C23.6465 40.4402 23.6567 39.8122 23.6431 39.1848C23.638 38.7847 23.7323 38.5693 24.1494 38.3243C26.2522 37.074 28.0606 35.493 29.2484 33.1873ZM17.4354 8.96174L17.3393 9.1078C17.4359 9.21635 17.5098 9.37775 17.6326 9.42549C18.4316 9.74204 19.2187 10.1643 20.0519 10.3047C21.4727 10.54 22.9185 10.5888 24.3535 10.7184C24.8405 10.7627 25.327 10.8059 25.8123 10.8639C27.5707 11.0736 29.3495 11.1827 31.0812 11.5283C33.7818 12.067 35.0327 14.0743 34.4473 16.6999C34.1848 17.8775 33.5886 18.9107 32.7566 19.758C31.7637 20.7691 30.6595 21.6698 29.6308 22.6462C28.8352 23.4004 27.8929 23.6351 26.8359 23.6231C26.3916 23.6267 25.9487 23.6732 25.5134 23.7618C25.2577 23.8096 24.9786 23.9028 24.7871 24.0659C24.6291 24.2011 24.5848 24.4688 24.4899 24.6774C24.6768 24.7603 24.8661 24.9178 25.0497 24.911C25.4251 24.8925 25.797 24.8289 26.1573 24.7217C27.5525 24.3205 28.9205 23.497 30.3867 24.5012C30.576 24.6308 30.8044 24.7405 30.9289 24.9195C31.6677 25.9783 31.9263 27.1643 31.7524 28.4391C31.8177 28.4436 31.8478 28.455 31.8609 28.4447C32.2474 28.1481 32.6406 27.8594 33.0152 27.5474C34.9133 25.9657 36.5308 24.1267 37.5725 21.8847C38.3545 20.2019 39.0808 18.4543 39.5212 16.6562C40.4635 12.8138 39.2604 10.0393 35.5084 8.15757C33.6994 7.25111 31.687 7.24259 29.7115 7.11869C27.8929 7.00503 26.0789 6.84704 24.262 6.72087C22.8156 6.62142 21.5659 6.06219 20.4486 5.16312C20.3319 5.08232 20.2094 5.01032 20.082 4.94773C20.2178 5.25519 20.4662 5.43023 20.6503 5.65869C20.7782 5.81952 20.8168 6.05253 20.8953 6.25315C20.706 6.2003 20.4935 6.18666 20.3321 6.08834C19.6501 5.67063 18.9783 5.22791 18.3037 4.79428L18.1594 4.97842L20.3076 7.20962L20.0513 7.49378L16.8182 5.05912L16.642 5.2711L19.7223 8.27749L19.5211 8.51391L16.4942 6.2145C17.0199 7.83989 18.6879 8.35933 19.7046 9.49823C19.6588 9.57098 19.6126 9.64372 19.566 9.71646L17.4354 8.96174ZM11.6147 27.3297C10.1018 27.5928 8.71057 27.4689 7.3864 26.8427C6.73681 26.5358 6.27534 26.0862 6.03779 25.3719C5.64508 24.1886 5.81728 23.0509 6.41231 22.0375C7.16078 20.7634 7.9854 19.5131 8.92199 18.3765C10.4252 16.5465 11.892 14.6773 13.7385 13.1508C14.4642 12.5512 15.1024 11.8261 15.6878 11.085C16.0146 10.6724 16.151 10.1092 16.3732 9.61417L16.1362 9.48914L14.8416 11.41L14.5904 11.2793C14.8376 9.79035 15.6815 8.3741 15.1928 6.78282L14.1783 10.3916L13.8896 10.3297L14.4932 6.07242L14.2528 6.03548C13.7476 7.28578 13.7203 8.70657 13.0343 9.89037L12.7831 9.84604L13.0957 6.85045L12.8684 6.81578C12.6001 7.53982 12.3427 8.2684 12.0551 8.98504C11.9852 9.15952 11.817 9.29477 11.6937 9.44822C11.6465 9.23965 11.5539 9.0288 11.5624 8.82307C11.5755 8.51334 11.659 8.20645 11.7283 7.80806C11.5834 7.91149 11.5226 7.93195 11.5163 7.96264C11.1111 10.0336 9.81936 11.5766 8.48439 13.1014C6.61633 15.2331 4.64484 17.2967 3.29225 19.816C1.72256 22.7388 1.32247 25.7322 3.06152 28.7658C4.67099 31.5739 7.47619 32.9458 10.5553 32.4139C10.0853 30.5844 10.6383 28.9579 11.6147 27.3297ZM21.6415 20.7225C21.5909 21.592 22.0035 22.0432 22.6121 22.0563C23.1879 22.0688 23.8283 21.5306 23.8744 20.9129C23.8903 20.7014 23.6885 20.4741 23.5862 20.2547C23.4726 20.4286 23.3589 20.6031 23.2413 20.7765C23.1032 20.9822 22.9929 21.3203 22.8173 21.359C22.6013 21.4067 22.3183 21.226 22.0876 21.1015C21.9199 21.0112 21.7887 20.8515 21.6415 20.7225ZM20.4452 20.9566L20.1985 21.0055C20.1468 21.1697 20.0968 21.3345 20.0428 21.4977C19.8547 22.0722 19.4569 22.1882 18.9857 21.8017C18.884 21.7182 18.8152 21.584 18.7016 21.5289C18.5879 21.4738 18.4288 21.4772 18.2901 21.455C18.2753 21.5948 18.2128 21.7505 18.2543 21.871C18.4776 22.52 19.2148 22.9048 19.7888 22.5627C20.1394 22.353 20.3633 21.8955 20.577 21.5113C20.6429 21.3885 20.4946 21.1447 20.4452 20.9566ZM23.0696 22.6388L22.9088 22.4229C22.7235 22.4894 22.4979 22.5098 22.3598 22.6303C21.7983 23.1196 21.1777 23.2776 20.4514 23.1156C20.3269 23.0884 20.1673 23.2191 20.0235 23.277C20.1269 23.4021 20.2065 23.5959 20.3372 23.6408C21.0243 23.8761 21.7011 23.7777 22.3018 23.3918C22.5985 23.2071 22.8173 22.8951 23.0696 22.6388ZM16.6738 41.0665H18.0264C18.0929 40.5766 18.1617 40.0748 18.2299 39.5729L18.0548 39.4712L16.6738 41.0665ZM28.2981 41.0523L26.8717 39.4041L26.7012 39.5127C26.7461 39.769 26.7967 40.0242 26.8347 40.2816C26.8728 40.5391 26.8967 40.7903 26.9279 41.0494L28.2981 41.0523ZM31.8643 37.6509C32.9237 36.9121 33.388 36.1125 33.1101 35.5663C32.2127 35.9437 32.2854 36.8615 31.8621 37.648L31.8643 37.6509ZM11.9091 36.7001C11.8522 36.7654 11.7954 36.8314 11.7386 36.8967C12.0227 37.3514 12.3546 37.7299 13.0599 37.5537L11.9091 36.7001Z" fill="#202124"/>
<path d="M20.533 30.3895L18.8422 32.3815L18.6416 32.2184L20.2676 30.1622L20.533 30.3895Z" fill="#202124"/>
<path d="M54.016 12.596L52.696 13.916C51.856 13.256 50.98 13.04 49.84 13.04C49.264 13.04 48.796 13.268 48.796 13.616C48.796 14.636 54.364 14.468 54.364 17.588C54.364 19.064 52.684 20.18 49.996 20.18C48.532 20.18 47.62 19.88 46.312 18.656L47.668 17.384C48.376 17.96 48.844 18.308 50.356 18.308C51.244 18.308 51.76 18.008 51.76 17.564C51.76 16.34 46.552 16.364 46.552 13.724C46.552 12.488 48.076 11.42 50.404 11.42C51.58 11.42 52.672 11.672 54.016 12.596ZM55.0076 15.8C55.0076 13.328 56.9516 11.42 59.2676 11.42C61.5836 11.42 63.5276 13.532 63.5276 15.8C63.5276 18.068 61.5836 20.192 59.2676 20.192C56.9516 20.192 55.0076 18.272 55.0076 15.8ZM57.0356 15.8C57.0356 16.88 57.6476 18.224 59.2676 18.224C60.8996 18.224 61.5116 16.88 61.5116 15.8C61.5116 14.72 60.8996 13.376 59.2676 13.376C57.6476 13.376 57.0356 14.72 57.0356 15.8ZM66.4277 18.104H70.3157V20H64.4837V11.6H66.4277V18.104ZM71.1165 20V11.6H77.2125V13.496H73.0605V14.804H76.9125V16.7H73.0605V18.104H77.2725V20H71.1165ZM80.0206 11.6L81.3646 13.796C81.6406 14.228 81.6646 14.864 81.6646 15.38H81.9886C81.9886 14.864 82.0126 14.228 82.2886 13.796L83.6806 11.6H85.8406L82.8526 16.028V19.916H80.8366V16.028L77.8486 11.6H80.0206ZM52.732 26.556H48.652V28.224H52.072V30.18H48.652V33H46.636V24.6H52.732V26.556ZM55.8222 31.104H59.7102V33H53.8782V24.6H55.8222V31.104ZM60.3865 28.8C60.3865 26.328 62.3305 24.42 64.6465 24.42C66.9625 24.42 68.9065 26.532 68.9065 28.8C68.9065 31.068 66.9625 33.192 64.6465 33.192C62.3305 33.192 60.3865 31.272 60.3865 28.8ZM62.4145 28.8C62.4145 29.88 63.0265 31.224 64.6465 31.224C66.2785 31.224 66.8905 29.88 66.8905 28.8C66.8905 27.72 66.2785 26.376 64.6465 26.376C63.0265 26.376 62.4145 27.72 62.4145 28.8ZM75.5986 29.4C76.0906 29.748 76.1866 30.276 76.3186 30.9C76.4266 31.392 76.9666 33 76.9666 33H74.8666C74.6146 31.944 74.4226 31.164 74.3746 30.996C74.0266 29.64 73.2466 29.964 72.8266 29.94C72.7426 29.94 72.6586 29.94 72.5506 29.94C72.2866 29.94 71.6626 29.94 71.8066 29.94V33H69.8626V24.6H73.1866C75.1426 24.6 76.7626 24.984 76.7626 26.952C76.7626 27.948 76.2706 28.44 75.6106 28.764C75.1186 28.992 74.3986 28.92 73.8586 28.92V29.244C74.3986 29.244 75.1546 29.1 75.5986 29.4ZM71.8066 25.764V28.344H72.9946C73.9066 28.344 74.7346 27.708 74.7346 26.976C74.7346 26.22 73.9666 25.764 72.9946 25.764H71.8066ZM78.0657 33V24.6H84.1617V26.496H80.0097V27.804H83.8617V29.7H80.0097V31.104H84.2217V33H78.0657ZM92.2543 25.596L90.9343 26.916C90.0943 26.256 89.2183 26.04 88.0783 26.04C87.5023 26.04 87.0343 26.268 87.0343 26.616C87.0343 27.636 92.6023 27.468 92.6023 30.588C92.6023 32.064 90.9223 33.18 88.2343 33.18C86.7703 33.18 85.8583 32.88 84.5503 31.656L85.9063 30.384C86.6143 30.96 87.0823 31.308 88.5943 31.308C89.4823 31.308 89.9983 31.008 89.9983 30.564C89.9983 29.34 84.7903 29.364 84.7903 26.724C84.7903 25.488 86.3143 24.42 88.6423 24.42C89.8183 24.42 90.9103 24.672 92.2543 25.596Z" fill="#1F1F21"/>
</svg>
