<svg width="41" height="38" viewBox="0 0 41 38" fill="none" xmlns="http://www.w3.org/2000/svg">
<g id="Layer 1">
<path id="Vector" d="M29.2484 28.8477C30.8584 29.836 31.0238 31.5188 31.4046 33.2283C31.5841 32.777 31.6978 32.4326 31.8592 32.1104C32.0206 31.7882 32.1491 31.408 32.4128 31.2244C32.6969 31.0272 33.118 31.0306 33.4795 30.9465C33.5028 31.2761 33.6466 31.662 33.5249 31.9246C33.2601 32.4963 32.86 33.0044 32.4628 33.6216C33.4289 33.5647 33.9654 32.8458 34.6099 32.3338C34.944 32.8918 34.6968 33.1589 33.0186 34.1268C33.8517 34.5382 34.7264 34.9446 35.576 35.4038C35.8602 35.5567 36.1693 35.8016 36.2892 36.0807C36.5586 36.7092 37.0195 36.7246 37.5816 36.7058C38.5364 36.6706 39.4934 36.6882 40.4493 36.6961C40.626 36.6961 40.8028 36.7592 40.9795 36.7933L41 37.0525C40.7335 37.1133 40.4675 37.223 40.2004 37.223C37.061 37.24 33.9211 37.2338 30.7811 37.2474C27.6821 37.2611 24.5825 37.3105 21.4829 37.3077C17.154 37.3031 12.8252 37.2508 8.49632 37.2468C6.58848 37.2468 4.68065 37.3167 2.77338 37.3207C1.85612 37.3207 0.938289 37.2457 0.0210277 37.2071L0 36.9797C0.317688 36.9553 0.634809 36.9166 0.953066 36.9098C3.23883 36.8621 5.52517 36.8246 7.8115 36.7717C7.99222 36.7678 8.27354 36.724 8.33605 36.6069C8.98791 35.3794 10.1643 34.9213 11.3578 34.478C11.4426 34.4406 11.525 34.3979 11.6044 34.3501L9.84721 33.5869L9.92336 33.3437L12.4467 33.9796C11.9971 33.4891 11.6664 33.2084 11.4504 32.8572C11.3447 32.6867 11.3618 32.2889 11.4896 32.1616C11.6334 32.0172 12.0324 31.9445 12.2017 32.0433C12.6831 32.3235 13.1042 32.7077 13.5805 33.0748C15.6463 33.3402 17.3217 32.4781 18.5686 30.7089C18.0918 29.94 18.2304 29.1745 18.9664 28.4624C19.5755 27.8787 20.1513 27.2613 20.6912 26.6131C20.9799 26.2624 21.2942 25.7475 20.8805 25.3713C20.7401 25.2446 20.082 25.5214 19.7853 25.7657C18.9505 26.4511 18.381 27.3479 18.0059 28.3675C17.9332 28.5658 17.815 28.7903 17.6496 28.9045C15.9771 30.0576 14.1704 30.4515 12.2211 29.7241C11.8619 29.5899 11.4857 29.3222 11.2754 29.0097C10.9702 28.555 10.5934 28.58 10.1427 28.5402C8.93108 28.4328 7.69897 28.355 6.52426 28.0691C4.63461 27.6093 3.55425 26.1437 2.65176 24.5456C0.885436 21.4198 1.19858 18.3458 2.86886 15.282C3.91911 13.3566 5.32114 11.7016 6.72374 10.0438C7.63816 8.96404 8.48552 7.81605 9.45166 6.78512C10.3166 5.86388 10.6451 4.72952 11.0208 3.59516C11.2424 2.92342 11.4692 2.78816 11.9869 3.00639C12.2938 2.61993 12.5558 2.21586 12.8968 1.89817C12.9809 1.82145 13.3406 2.04537 13.4651 2.09083C13.7413 1.75382 14.0471 1.38101 14.3522 1.00762L15.0911 1.86862C15.6594 1.82884 15.8793 1.95557 15.8594 2.71712C15.8378 3.52754 15.6474 4.33397 15.5292 5.15633C15.4991 5.14553 15.5406 5.17736 15.5673 5.16826C15.8748 5.05744 16.1817 4.94378 16.4891 4.83011C16.4823 5.19838 16.5727 5.60189 16.4533 5.92924C15.8168 7.67226 14.3181 8.70432 13.1002 9.98644C10.8992 12.3006 8.73388 14.6671 7.0761 17.4217C6.70726 18.0338 6.48164 18.7658 6.33729 19.4722C6.03665 20.9379 6.70385 21.9398 8.15931 22.3087C9.28628 22.5928 10.4326 22.7548 11.5692 22.3774C11.9341 22.2569 12.3228 22.108 12.6069 21.8659C13.535 21.0703 14.529 20.4037 15.6992 20.0201C15.8444 19.966 15.9838 19.8972 16.1152 19.8149C16.164 19.7865 16.1925 19.724 16.1788 19.5273C15.735 19.6552 15.2752 19.7427 14.8512 19.9178C13.9181 20.3036 13.019 20.5747 11.9915 20.1678C10.0842 19.412 9.49712 17.4155 10.798 15.7975C12.1944 14.0584 14.1045 13.6345 16.2822 13.7402L15.7776 15.161C16.0271 15.024 16.1754 14.9939 16.2101 14.9154C17.141 12.6717 18.8527 11.1981 20.9339 10.0808C22.0739 9.4519 23.4094 9.27712 24.6729 9.59146C25.2707 9.73354 25.8095 10.0865 25.9232 10.7525C26.0613 11.5453 26.0578 12.3438 25.4225 12.9741C25.0917 13.3014 24.7331 13.5992 24.4023 13.9277C24.2944 14.0351 24.2358 14.1914 24.2671 14.4392C24.4052 14.3619 24.545 14.2869 24.6814 14.2062C25.5339 13.7027 26.3573 13.1423 27.2422 12.7053C28.7056 11.9824 30.622 12.62 31.2454 14.0976C31.4932 14.6853 31.3818 15.4252 31.4335 16.0936C32.8685 14.8399 34.0063 13.3315 34.0546 11.247C34.0972 9.38914 33.2397 8.29173 31.4114 7.74046C29.3751 7.12782 27.2951 6.90674 25.1662 6.87264C23.4612 6.84536 21.7466 6.65157 20.065 6.36116C19.1466 6.20317 18.2753 5.72123 17.4138 5.3183C17.1864 5.21202 17.079 4.85626 16.9159 4.61529C17.2029 4.52152 17.4888 4.42434 17.7775 4.33625C17.8343 4.31806 17.9065 4.33625 18.0554 4.33625C17.5791 3.92195 17.1461 3.56732 16.7403 3.182C16.5005 2.95467 16.2624 2.70291 16.1021 2.41818C15.8606 1.98854 15.6474 1.50888 16.2822 1.4009C16.3038 0.968978 16.3215 0.612076 16.3391 0.255173L17.6911 0.567747C17.898 -0.161402 18.0713 -0.185271 19.2983 0.47909C19.6461 -0.171063 20.1144 -0.0574004 20.5742 0.347809C22.5508 2.08003 25.0389 2.01752 27.4201 2.27269C28.9858 2.43921 30.5742 2.38636 32.1434 2.53185C34.9929 2.7927 37.4406 3.92422 39.1337 6.29125C40.3197 7.94733 40.5425 9.89722 40.122 11.8488C39.4809 14.82 38.388 17.6229 36.5921 20.1167C35.3174 21.8864 33.6903 23.2867 32.0098 24.6467C31.5461 25.0218 31.2324 25.5822 30.8544 26.0613C30.073 27.0524 29.3262 28.0725 28.5079 29.0324C27.0956 30.689 25.2577 31.7035 23.1981 32.3178C22.5508 32.5105 21.8552 32.5406 21.2198 32.6389V36.7126H23.6465C23.6465 36.1006 23.6567 35.4726 23.6431 34.8451C23.638 34.445 23.7323 34.2297 24.1494 33.9847C26.2522 32.7344 28.0606 31.1534 29.2484 28.8477ZM17.4354 4.62211L17.3393 4.76817C17.4359 4.87672 17.5098 5.03812 17.6326 5.08586C18.4316 5.40241 19.2187 5.82467 20.0519 5.96504C21.4727 6.20032 22.9185 6.2492 24.3535 6.37878C24.8405 6.4231 25.327 6.4663 25.8123 6.52426C27.5707 6.73397 29.3495 6.84309 31.0812 7.18862C33.7818 7.72739 35.0327 9.73468 34.4473 12.3603C34.1848 13.5378 33.5886 14.571 32.7566 15.4184C31.7637 16.4294 30.6595 17.3302 29.6308 18.3066C28.8352 19.0607 27.8929 19.2955 26.8359 19.2835C26.3916 19.2871 25.9487 19.3336 25.5134 19.4222C25.2577 19.4699 24.9786 19.5631 24.7871 19.7262C24.6291 19.8615 24.5848 20.1292 24.4899 20.3377C24.6768 20.4207 24.8661 20.5781 25.0497 20.5713C25.4251 20.5529 25.797 20.4893 26.1573 20.3821C27.5525 19.9808 28.9205 19.1574 30.3867 20.1616C30.576 20.2911 30.8044 20.4008 30.9289 20.5798C31.6677 21.6386 31.9263 22.8247 31.7524 24.0994C31.8177 24.104 31.8478 24.1153 31.8609 24.1051C32.2474 23.8085 32.6406 23.5197 33.0152 23.2077C34.9133 21.6261 36.5308 19.787 37.5725 17.545C38.3545 15.8623 39.0808 14.1147 39.5212 12.3165C40.4635 8.47415 39.2604 5.69964 35.5084 3.81794C33.6994 2.91148 31.687 2.90296 29.7115 2.77906C27.8929 2.6654 26.0789 2.50741 24.262 2.38124C22.8156 2.28179 21.5659 1.72256 20.4486 0.823489C20.3319 0.742687 20.2094 0.67069 20.082 0.608097C20.2178 0.915556 20.4662 1.0906 20.6503 1.31906C20.7782 1.47989 20.8168 1.7129 20.8953 1.91352C20.706 1.86067 20.4935 1.84703 20.3321 1.74871C19.6501 1.33099 18.9783 0.888277 18.3037 0.454652L18.1594 0.638786L20.3076 2.86999L20.0513 3.15415L16.8182 0.719487L16.642 0.931469L19.7223 3.93786L19.5211 4.17428L16.4942 1.87487C17.0199 3.50026 18.6879 4.0197 19.7046 5.1586C19.6588 5.23135 19.6126 5.30409 19.566 5.37683L17.4354 4.62211ZM11.6147 22.9901C10.1018 23.2532 8.71057 23.1293 7.3864 22.503C6.73681 22.1961 6.27534 21.7466 6.03779 21.0322C5.64508 19.849 5.81728 18.7112 6.41231 17.6979C7.16078 16.4238 7.9854 15.1735 8.92199 14.0368C10.4252 12.2069 11.892 10.3377 13.7385 8.81117C14.4642 8.21159 15.1024 7.48642 15.6878 6.74534C16.0146 6.33274 16.151 5.76954 16.3732 5.27454L16.1362 5.14951L14.8416 7.07042L14.5904 6.9397C14.8376 5.45072 15.6815 4.03447 15.1928 2.44319L14.1783 6.05199L13.8896 5.99005L14.4932 1.73279L14.2528 1.69585C13.7476 2.94615 13.7203 4.36694 13.0343 5.55074L12.7831 5.50641L13.0957 2.51082L12.8684 2.47615C12.6001 3.20019 12.3427 3.92877 12.0551 4.64541C11.9852 4.81989 11.817 4.95514 11.6937 5.10859C11.6465 4.90002 11.5539 4.68917 11.5624 4.48344C11.5755 4.17371 11.659 3.86682 11.7283 3.46843C11.5834 3.57186 11.5226 3.59232 11.5163 3.62301C11.1111 5.69395 9.81936 7.23693 8.48439 8.76172C6.61633 10.8935 4.64484 12.957 3.29225 15.4764C1.72256 18.3992 1.32247 21.3925 3.06152 24.4262C4.67099 27.2343 7.47619 28.6062 10.5553 28.0742C10.0853 26.2448 10.6383 24.6183 11.6147 22.9901ZM21.6415 16.3828C21.5909 17.2524 22.0035 17.7036 22.6121 17.7167C23.1879 17.7292 23.8283 17.191 23.8744 16.5732C23.8903 16.3618 23.6885 16.1345 23.5862 15.9151C23.4726 16.089 23.3589 16.2635 23.2413 16.4368C23.1032 16.6426 22.9929 16.9807 22.8173 17.0194C22.6013 17.0671 22.3183 16.8864 22.0876 16.7619C21.9199 16.6715 21.7887 16.5118 21.6415 16.3828ZM20.4452 16.617L20.1985 16.6659C20.1468 16.8301 20.0968 16.9949 20.0428 17.158C19.8547 17.7326 19.4569 17.8485 18.9857 17.4621C18.884 17.3785 18.8152 17.2444 18.7016 17.1893C18.5879 17.1341 18.4288 17.1376 18.2901 17.1154C18.2753 17.2552 18.2128 17.4109 18.2543 17.5314C18.4776 18.1804 19.2148 18.5652 19.7888 18.223C20.1394 18.0133 20.3633 17.5558 20.577 17.1717C20.6429 17.0489 20.4946 16.8051 20.4452 16.617ZM23.0696 18.2992L22.9088 18.0832C22.7235 18.1497 22.4979 18.1702 22.3598 18.2907C21.7983 18.78 21.1777 18.938 20.4514 18.776C20.3269 18.7487 20.1673 18.8794 20.0235 18.9374C20.1269 19.0624 20.2065 19.2562 20.3372 19.3011C21.0243 19.5364 21.7011 19.4381 22.3018 19.0522C22.5985 18.8675 22.8173 18.5555 23.0696 18.2992ZM16.6738 36.7268H18.0264C18.0929 36.2369 18.1617 35.7351 18.2299 35.2333L18.0548 35.1316L16.6738 36.7268ZM28.2981 36.7126L26.8717 35.0645L26.7012 35.1731C26.7461 35.4294 26.7967 35.6845 26.8347 35.942C26.8728 36.1994 26.8967 36.4506 26.9279 36.7098L28.2981 36.7126ZM31.8643 33.3113C32.9237 32.5724 33.388 31.7728 33.1101 31.2267C32.2127 31.604 32.2854 32.5219 31.8621 33.3084L31.8643 33.3113ZM11.9091 32.3605C11.8522 32.4258 11.7954 32.4917 11.7386 32.5571C12.0227 33.0118 12.3546 33.3903 13.0599 33.2141L11.9091 32.3605Z" fill="#202124"/>
<path id="Vector_2" d="M20.533 26.0499L18.8422 28.0418L18.6416 27.8787L20.2676 25.8226L20.533 26.0499Z" fill="#202124"/>
</g>
</svg>
