<svg width="14" height="14" viewBox="0 0 14 14" fill="none" xmlns="http://www.w3.org/2000/svg">
<g clip-path="url(#clip0_147_73)">
<path fill-rule="evenodd" clip-rule="evenodd" d="M5.25 2.625C5.44534 2.625 5.617 2.75449 5.67067 2.94231L6.14503 4.60259C6.35266 5.32929 6.92071 5.89734 7.64741 6.10497L9.30769 6.57933C9.49551 6.633 9.625 6.80466 9.625 7C9.625 7.19534 9.49551 7.367 9.30769 7.42067L7.64741 7.89503C6.92071 8.10266 6.35266 8.67071 6.14503 9.39741L5.67067 11.0577C5.617 11.2455 5.44534 11.375 5.25 11.375C5.05466 11.375 4.883 11.2455 4.82933 11.0577L4.35497 9.39741C4.14734 8.67071 3.57929 8.10266 2.85259 7.89503L1.19231 7.42067C1.00449 7.367 0.875 7.19534 0.875 7C0.875 6.80466 1.00449 6.633 1.19231 6.57933L2.85259 6.10497C3.57929 5.89734 4.14734 5.32929 4.35497 4.60259L4.82933 2.94231C4.883 2.75449 5.05466 2.625 5.25 2.625Z" fill="black"/>
<path fill-rule="evenodd" clip-rule="evenodd" d="M10.5 0.875C10.7008 0.875 10.8757 1.01163 10.9244 1.20639L11.0754 1.81041C11.2126 2.35903 11.641 2.7874 12.1896 2.92456L12.7936 3.07556C12.9884 3.12425 13.125 3.29925 13.125 3.5C13.125 3.70075 12.9884 3.87575 12.7936 3.92444L12.1896 4.07544C11.641 4.2126 11.2126 4.64097 11.0754 5.18959L10.9244 5.79361C10.8757 5.98837 10.7008 6.125 10.5 6.125C10.2992 6.125 10.1243 5.98837 10.0756 5.79361L9.92456 5.18959C9.7874 4.64097 9.35903 4.2126 8.81041 4.07544L8.20639 3.92444C8.01163 3.87575 7.875 3.70075 7.875 3.5C7.875 3.29925 8.01163 3.12425 8.20639 3.07556L8.81041 2.92456C9.35903 2.7874 9.7874 2.35903 9.92456 1.81041L10.0756 1.20639C10.1243 1.01163 10.2992 0.875 10.5 0.875Z" fill="black"/>
<path fill-rule="evenodd" clip-rule="evenodd" d="M9.625 8.75C9.81331 8.75 9.9805 8.8705 10.04 9.04915L10.27 9.73908C10.3571 10.0004 10.5621 10.2054 10.8234 10.2925L11.5133 10.5225C11.692 10.582 11.8125 10.7492 11.8125 10.9375C11.8125 11.1258 11.692 11.293 11.5133 11.3525L10.8234 11.5825C10.5621 11.6696 10.3571 11.8746 10.27 12.1359L10.04 12.8258C9.9805 13.0045 9.81331 13.125 9.625 13.125C9.43669 13.125 9.2695 13.0045 9.20995 12.8258L8.97997 12.1359C8.89288 11.8746 8.68786 11.6696 8.42658 11.5825L7.73665 11.3525C7.558 11.293 7.4375 11.1258 7.4375 10.9375C7.4375 10.7492 7.558 10.582 7.73665 10.5225L8.42658 10.2925C8.68786 10.2054 8.89288 10.0004 8.97997 9.73908L9.20995 9.04915C9.2695 8.8705 9.43669 8.75 9.625 8.75Z" fill="black"/>
</g>
<defs>
<clipPath id="clip0_147_73">
<rect width="14" height="14" fill="white"/>
</clipPath>
</defs>
</svg>
