<svg width="352" height="224" viewBox="0 0 352 224" fill="none" xmlns="http://www.w3.org/2000/svg">
<path fill-rule="evenodd" clip-rule="evenodd" d="M258.361 215.206C258.785 215.546 259.463 215.698 260.062 215.306C262.328 213.826 266.282 211.43 271.847 208.501C276.51 206.047 280.042 205.79 286.64 205.664C287.198 205.653 287.778 205.643 288.38 205.633C294.921 205.522 304.226 205.364 319.401 203.496C332.855 201.84 341.107 195.395 345.922 187.977C350.716 180.589 352.079 172.276 351.862 166.847C351.861 166.811 351.857 166.775 351.85 166.74C344.293 125.483 320.795 105.823 309.748 101.09C308.327 100.187 305.319 99.221 300.723 98.946C296.094 98.6689 289.792 99.0883 281.741 101.025C276.615 102.258 273.355 104.283 271.519 106.81C269.673 109.349 269.348 112.278 269.85 115.125C270.351 117.96 271.675 120.757 273.193 123.136C274.713 125.517 276.457 127.526 277.847 128.783C279.312 130.109 281.338 130.959 283.613 131.639C285.259 132.132 287.102 132.553 289.026 132.992C289.758 133.159 290.501 133.329 291.25 133.506C296.735 134.806 302.684 136.555 307.623 140.753C308.197 141.242 308.747 141.706 309.272 142.151C313.431 145.672 316.09 147.922 318.092 150.61C320.321 153.603 321.754 157.172 323.4 163.756C324.656 168.78 323.195 172.737 320.848 175.678C318.479 178.646 315.208 180.571 312.936 181.423C312.921 181.429 312.906 181.435 312.891 181.441C312.882 181.445 312.872 181.45 312.862 181.455C311.535 182.118 308.025 183.186 301.889 184.085C295.781 184.979 287.129 185.698 275.561 185.698C265.017 185.698 258.126 186.814 253.752 188.321C249.426 189.812 247.37 191.76 246.906 193.576C246.769 194.111 246.996 194.601 247.392 194.867C247.76 195.114 248.238 195.151 248.657 194.974L253.381 192.969L244.198 204.021C243.126 205.311 244.817 207.05 246.137 206.016L250.989 202.21L246.07 210.081C245.26 211.376 246.816 212.846 248.063 211.964L256.571 205.951L252.189 212.109C251.259 213.415 252.901 215.004 254.176 214.033L259.307 210.124L257.913 213.555C257.639 214.228 257.936 214.864 258.361 215.206ZM259.418 213.905C261.754 212.389 265.684 210.02 271.137 207.15C276.138 204.518 279.983 204.265 286.61 204.138C287.169 204.127 287.749 204.117 288.352 204.107C294.878 203.996 304.119 203.839 319.214 201.982C332.211 200.382 340.067 194.195 344.642 187.146C349.221 180.09 350.535 172.131 350.34 166.961C342.855 126.191 319.669 106.995 309.138 102.489C309.062 102.457 308.997 102.421 308.933 102.38C307.829 101.676 305.116 100.738 300.631 100.469C296.173 100.202 290.024 100.602 282.098 102.508C277.178 103.692 274.302 105.576 272.753 107.707C271.213 109.825 270.902 112.302 271.353 114.859C271.807 117.429 273.025 120.036 274.48 122.315C275.933 124.591 277.59 126.493 278.871 127.652C280.077 128.743 281.834 129.514 284.05 130.177C285.645 130.654 287.412 131.058 289.315 131.492C290.057 131.662 290.82 131.836 291.602 132.021C297.117 133.329 303.376 135.141 308.611 139.59C309.189 140.081 309.743 140.55 310.275 141.001C314.395 144.486 317.202 146.861 319.315 149.699C321.728 152.937 323.22 156.743 324.88 163.386C326.269 168.942 324.636 173.378 322.04 176.63C319.479 179.839 315.981 181.903 313.508 182.838C311.932 183.615 308.229 184.699 302.11 185.595C295.917 186.502 287.19 187.224 275.561 187.224C265.102 187.224 258.4 188.333 254.249 189.764C250.826 190.944 249.263 192.294 248.658 193.315L253.268 191.36C254.618 190.787 255.827 192.414 254.89 193.542L246.134 204.078L250.618 200.562C251.851 199.595 253.498 201.075 252.667 202.404L247.699 210.353L256.3 204.273C257.586 203.364 259.16 204.943 258.247 206.226L253.918 212.311L258.752 208.628C259.884 207.765 261.432 208.948 260.896 210.267L259.418 213.905Z" fill="#202124"/>
<path fill-rule="evenodd" clip-rule="evenodd" d="M176.183 35.1041C175.5 33.7285 177.212 32.4168 178.362 33.434L184.168 38.5653L179.256 30.8419C179.021 30.4722 178.935 29.9528 179.207 29.5166C179.348 29.2912 179.575 29.117 179.859 29.0524C180.136 28.9894 180.402 29.0446 180.621 29.1483C181.379 29.5065 182.285 30.2009 183.244 31.0574C184.218 31.9266 185.297 33.0098 186.407 34.1952C188.504 36.4358 190.736 39.0702 192.609 41.3799L191.017 35.5156C190.858 34.93 191.083 34.3595 191.523 34.0463C191.977 33.7234 192.613 33.7097 193.108 34.1208C195.624 36.2109 197.454 39.4798 198.727 42.6752C200.005 45.8854 200.756 49.1131 201.065 51.2152C201.067 51.2251 201.068 51.235 201.069 51.2449C202.998 69.255 207.542 83.0584 209.548 87.6621C209.558 87.6863 209.568 87.711 209.576 87.7361C211.061 92.4157 213.869 99.3363 217.452 104.886C219.245 107.662 221.207 110.055 223.261 111.657C225.312 113.258 227.384 114.018 229.448 113.694C233.802 113.011 237.57 109.594 240.551 105.394C243.514 101.217 245.594 96.4128 246.609 93.2389C246.67 93.0485 246.77 92.8794 246.894 92.7397C250.853 88.2505 254.97 86.075 258.773 85.7755C262.59 85.4748 265.97 87.0753 268.393 89.8883C273.223 95.4959 274.246 105.848 267.943 115.99C261.677 126.074 254.146 131.605 246.542 134.438C238.954 137.265 231.346 137.385 224.939 136.742C211.88 135.429 196.981 123.269 191.779 103.493C187.677 87.8961 182.29 71.1702 180.109 64.7563C177.461 57.287 175.554 52.403 174.249 49.3353C173.596 47.8004 173.096 46.7276 172.732 46.0166C172.55 45.6605 172.406 45.4033 172.297 45.2277C172.197 45.0663 172.15 45.0131 172.151 45.0121C172.151 45.0119 172.154 45.0146 172.16 45.0194C171.858 44.7525 171.815 44.2968 172.063 43.9788C172.311 43.6609 172.763 43.5903 173.096 43.8177L177.113 46.563L173.588 39.7284C172.866 38.3286 174.649 36.9885 175.793 38.0715L179.309 41.4011L176.183 35.1041ZM177.839 35.0082L180.994 41.3633C181.689 42.7631 179.914 44.0756 178.779 43.001L175.287 39.6944L178.7 46.3107C179.365 47.6015 177.866 48.9263 176.667 48.1069L174.822 46.8456C175.068 47.3857 175.345 48.0133 175.653 48.7377C176.976 51.8453 178.894 56.7626 181.549 64.251C181.55 64.2541 181.551 64.2571 181.552 64.2602C183.739 70.6923 189.14 87.4587 193.255 103.105C198.327 122.389 212.785 133.987 225.092 135.223C231.37 135.854 238.72 135.723 246.01 133.008C253.284 130.297 260.551 124.993 266.647 115.184C272.683 105.472 271.535 95.8739 267.237 90.8842C265.096 88.3984 262.173 87.0384 258.893 87.2968C255.603 87.5559 251.832 89.454 248.054 93.7316C246.998 97.0219 244.859 101.959 241.795 106.277C238.739 110.583 234.657 114.422 229.685 115.202C227.057 115.614 224.567 114.612 222.322 112.861C220.079 111.111 218.009 108.561 216.17 105.714C212.5 100.03 209.647 92.9957 208.133 88.2352C206.054 83.4468 201.494 69.5227 199.553 51.4224C199.258 49.4253 198.536 46.3215 197.309 43.2398C196.174 40.3882 194.636 37.6321 192.666 35.7682L194.217 41.4813C194.62 42.964 192.691 43.9129 191.745 42.7388C189.823 40.3531 187.477 37.572 185.293 35.2381C184.2 34.0707 183.155 33.0232 182.228 32.1957C181.995 31.9872 181.772 31.7955 181.56 31.6211L185.939 38.5064C186.808 39.8737 185.046 41.3783 183.832 40.3052L177.839 35.0082Z" fill="#202124"/>
<path d="M219.131 83.7726C223.432 71.9074 238.165 72.6932 247.836 75.3694C249.412 75.8057 249.942 77.9688 249.336 79.488C249.156 79.9385 248.999 80.4026 248.864 80.8658C248.658 81.5673 250.261 82.2692 250.789 81.763C253.187 79.4604 257.395 76.1648 264.288 72.0422C275.197 65.5184 286.567 68.1267 291.796 70.6265C292.476 70.9519 293.107 71.3793 293.666 71.8859C298.497 76.263 298.091 80.4616 296.334 83.4379C294.805 86.028 291.741 87.0425 288.994 88.2678C285.824 89.6821 284.916 91.0661 284.898 91.929C284.892 92.211 285.177 92.3635 285.455 92.319C287.106 92.0554 291.799 91.2544 300.926 89.5813C311.154 87.7064 315.124 97.1516 315.83 102.109C316.671 112.309 307.477 116.732 300.162 118.207C297.18 118.808 294.124 118.283 291.186 117.494C279.042 114.23 276.495 116.293 276.844 118.005C276.861 118.09 276.903 118.167 276.961 118.233C279.915 121.561 289.809 121.906 294.491 121.656C294.532 121.654 294.573 121.656 294.614 121.662C307.937 123.591 304.952 138.318 301.787 145.452C298.872 150.432 287.804 161.663 266.855 166.75C240.669 173.108 235.008 158.289 234.616 152.725C234.223 147.161 237.162 145.803 246.869 141.514C254.46 138.16 254.348 135.098 253.294 133.903C253.246 133.848 253.187 133.806 253.121 133.776C248.54 131.672 241.496 136.642 237.002 140.813C235.361 142.336 233.462 143.616 231.27 144.077C218.702 146.72 211.075 141.609 207.323 136.577C205.396 133.993 204.662 130.699 204.938 127.487C206.362 110.951 224.249 103.724 237.029 101.496C225.88 102.081 220.822 96.4602 219.007 91.4507C218.113 88.9845 218.237 86.2387 219.131 83.7726Z" fill="#202124"/>
<path fill-rule="evenodd" clip-rule="evenodd" d="M261.517 94.2267C261.861 94.4385 261.98 94.8808 261.789 95.2363L255.4 107.162L261.032 107.873C261.45 107.926 261.746 108.308 261.693 108.726C261.64 109.144 261.259 109.44 260.841 109.387L255.025 108.653C254.052 108.53 253.504 107.469 253.967 106.604L257.7 99.6368C257.493 99.7763 257.289 99.8992 257.088 100.006C255.649 100.773 254.339 100.728 253.254 100.042C252.237 99.3988 251.533 98.2636 251.052 97.0892C250.564 95.8961 250.262 94.5567 250.109 93.3713C250.056 92.9533 250.351 92.571 250.769 92.5173C251.187 92.4636 251.569 92.7589 251.623 93.1769C251.763 94.2669 252.038 95.4706 252.465 96.5108C252.898 97.5697 253.446 98.3582 254.069 98.7519C254.624 99.1027 255.342 99.2074 256.371 98.6594C257.449 98.085 258.82 96.8096 260.493 94.4363C260.725 94.1067 261.174 94.0149 261.517 94.2267Z" fill="white"/>
<path fill-rule="evenodd" clip-rule="evenodd" d="M277.109 97.8245C277.432 98.0953 277.474 98.5766 277.204 98.8995C275.437 101.005 273.909 102.282 272.57 102.886C271.19 103.509 269.969 103.427 268.988 102.76C268.068 102.133 267.485 101.073 267.118 100.001C266.745 98.9105 266.557 97.6998 266.498 96.6353C266.475 96.2145 266.797 95.8545 267.218 95.8313C267.639 95.808 267.999 96.1303 268.022 96.551C268.075 97.515 268.245 98.5811 268.562 99.5062C268.885 100.449 269.325 101.143 269.847 101.498C270.31 101.813 270.952 101.942 271.943 101.495C272.975 101.029 274.326 99.9548 276.034 97.9187C276.305 97.5959 276.787 97.5537 277.109 97.8245Z" fill="white"/>
<path fill-rule="evenodd" clip-rule="evenodd" d="M272.204 110.377C272.533 110.64 272.587 111.12 272.323 111.449C270.166 114.149 267.426 115.237 264.9 115.493C262.396 115.748 260.088 115.189 258.699 114.581C258.313 114.412 258.137 113.962 258.306 113.576C258.475 113.19 258.925 113.014 259.311 113.183C260.489 113.699 262.534 114.2 264.746 113.975C266.935 113.753 269.272 112.824 271.131 110.497C271.394 110.167 271.874 110.114 272.204 110.377Z" fill="white"/>
<path fill-rule="evenodd" clip-rule="evenodd" d="M93.6383 222.861C93.212 223.198 92.5327 223.344 91.9368 222.947C89.6835 221.448 85.7504 219.018 80.2102 216.041C75.5683 213.547 72.0392 213.261 65.4425 213.078C64.8843 213.062 64.305 213.047 63.7023 213.032C57.1633 212.865 47.86 212.628 32.7012 210.63C19.2614 208.859 11.0648 202.344 6.31374 194.885C1.58268 187.456 0.29066 179.132 0.554227 173.705C0.555976 173.669 0.560241 173.633 0.56702 173.598C8.47643 132.407 32.1424 112.948 43.2296 108.311C44.6574 107.419 47.6744 106.479 52.2725 106.244C56.9037 106.006 63.2012 106.479 71.2353 108.484C76.351 109.761 79.5931 111.815 81.4083 114.357C83.2325 116.912 83.5321 119.843 83.0053 122.686C82.4808 125.516 81.1324 128.302 79.5939 130.668C78.0538 133.036 76.2927 135.03 74.892 136.276C73.4159 137.588 71.3825 138.421 69.1023 139.082C67.4514 139.56 65.6049 139.966 63.6781 140.388C62.9448 140.549 62.1998 140.713 61.4496 140.884C55.9535 142.137 49.9901 143.834 45.0155 147.99C44.4365 148.474 43.8833 148.934 43.3542 149.374C39.1653 152.859 36.4875 155.087 34.4625 157.757C32.2076 160.731 30.7442 164.288 29.0421 170.857C27.7432 175.87 29.1701 179.84 31.4922 182.801C33.8353 185.789 37.0897 187.742 39.3549 188.613C39.3698 188.619 39.3844 188.625 39.3989 188.632C39.4087 188.636 39.4184 188.641 39.428 188.646C40.7493 189.321 44.2505 190.418 50.3781 191.369C56.4784 192.316 65.1243 193.109 76.6912 193.208C87.2357 193.298 94.1167 194.472 98.4778 196.017C102.79 197.545 104.83 199.51 105.279 201.331C105.411 201.867 105.18 202.355 104.781 202.617C104.411 202.861 103.933 202.894 103.515 202.713L98.8083 200.668L107.897 211.798C108.958 213.097 107.252 214.822 105.941 213.776L101.122 209.929L105.973 217.842C106.772 219.144 105.203 220.6 103.964 219.708L95.5082 213.622L99.8373 219.817C100.756 221.132 99.1004 222.707 97.8334 221.724L92.7363 217.771L94.1007 221.214C94.3686 221.89 94.0663 222.524 93.6383 222.861ZM92.5929 221.551C90.2697 220.016 86.3601 217.613 80.9325 214.697C75.9534 212.022 72.1113 211.736 65.4849 211.552C64.926 211.537 64.3464 211.522 63.7436 211.507C57.2187 211.34 47.9795 211.104 32.9006 209.117C19.9181 207.407 12.1151 201.153 7.60087 194.065C3.08225 186.97 1.83614 179 2.07591 173.832C9.90916 133.127 33.2582 114.131 43.8269 109.715C43.9033 109.683 43.9692 109.648 44.0334 109.608C45.1434 108.913 47.8638 107.998 52.3507 107.768C56.8107 107.539 62.9565 107.991 70.8657 109.965C75.7754 111.19 78.6355 113.1 80.1663 115.244C81.688 117.375 81.978 119.854 81.5048 122.408C81.0294 124.973 79.7884 127.57 78.3146 129.836C76.8423 132.1 75.1684 133.988 73.8779 135.135C72.6629 136.216 70.8993 136.972 68.6775 137.616C67.0786 138.08 65.3078 138.468 63.4014 138.886C62.6576 139.05 61.8932 139.217 61.1104 139.396C55.5844 140.656 49.3095 142.414 44.0371 146.819C43.4553 147.305 42.8969 147.769 42.3607 148.215C38.2111 151.666 35.3843 154.016 33.2465 156.835C30.8066 160.053 29.2822 163.847 27.5649 170.474C26.1283 176.019 27.7241 180.469 30.2914 183.743C32.8252 186.974 36.3053 189.067 38.7702 190.023C40.3401 190.813 44.0336 191.929 50.144 192.877C56.3293 193.837 65.0503 194.634 76.6782 194.734C87.1368 194.823 93.8298 195.989 97.9683 197.456C101.381 198.665 102.932 200.028 103.528 201.055L98.9358 199.06C97.5906 198.476 96.3673 200.092 97.295 201.228L105.96 211.839L101.507 208.284C100.282 207.307 98.6227 208.773 99.4416 210.109L104.342 218.1L95.7931 211.947C94.5151 211.027 92.9273 212.593 93.8292 213.883L98.1065 220.005L93.3039 216.28C92.179 215.408 90.6217 216.578 91.1462 217.901L92.5929 221.551Z" fill="#202124"/>
<path fill-rule="evenodd" clip-rule="evenodd" d="M156.125 36.527C155.847 36.4645 155.582 36.5214 155.366 36.6231C154.679 36.9468 153.863 37.5447 152.999 38.2768C152.124 39.019 151.155 39.9379 150.159 40.943C148.286 42.8319 146.289 45.051 144.581 47.0323L146.012 42.288C146.187 41.7091 145.98 41.1313 145.546 40.8063C145.097 40.47 144.458 40.4486 143.958 40.8537C141.673 42.7051 139.968 45.595 138.761 48.4176C137.548 51.254 136.801 54.1093 136.473 55.9811C136.471 55.9909 136.469 56.0008 136.468 56.0107C134.282 72.1646 129.848 84.4666 127.931 88.5522C127.92 88.5761 127.91 88.6005 127.901 88.6254C126.449 92.7959 123.751 98.9475 120.391 103.845C118.71 106.296 116.891 108.392 115.012 109.776C113.135 111.158 111.273 111.778 109.451 111.44C105.583 110.723 102.294 107.578 99.7212 103.732C97.1644 99.9103 95.4156 95.5447 94.5809 92.6662C94.5254 92.4746 94.4299 92.3028 94.3101 92.1593C90.8508 88.0141 87.1846 85.9421 83.745 85.5769C80.2915 85.2101 77.1874 86.5785 74.9231 89.0658C70.4107 94.0226 69.2375 103.35 74.6674 112.655C80.0631 121.902 86.7149 127.08 93.5037 129.827C100.277 132.568 107.135 132.867 112.923 132.447C124.747 131.591 138.484 120.992 143.668 103.299C147.75 89.3671 153.017 74.4507 155.141 68.7334C157.71 62.0784 159.548 57.7321 160.799 55.0058C161.425 53.6416 161.901 52.6904 162.245 52.0618C162.417 51.7468 162.552 51.5209 162.653 51.368C162.741 51.2346 162.781 51.19 162.781 51.1891C162.78 51.189 162.779 51.1902 162.776 51.1925C163.077 50.9328 163.129 50.4844 162.892 50.163C162.654 49.8382 162.204 49.7551 161.865 49.9732L158.433 52.1806L161.452 46.7077C162.212 45.3285 160.467 43.9393 159.294 44.99L156.642 47.3645L159.261 42.4392C159.982 41.0831 158.307 39.7243 157.129 40.709L152.437 44.6289L156.697 38.3244C156.938 37.9675 157.048 37.4484 156.78 37.0012C156.64 36.7689 156.411 36.5916 156.125 36.527ZM154.25 39.2206L150.668 44.5207C149.761 45.8633 151.481 47.4163 152.724 46.3774L157.608 42.2972L154.959 47.2798C154.225 48.6598 155.963 50.0211 157.127 48.9786L159.754 46.6263L156.854 51.8842C156.153 53.156 157.614 54.522 158.836 53.7362L160.089 52.9299C159.884 53.3529 159.659 53.8312 159.412 54.3694C158.143 57.1351 156.292 61.5143 153.715 68.1882C153.714 68.1913 153.713 68.1943 153.712 68.1974C151.582 73.9326 146.3 88.8891 142.204 102.87C137.162 120.075 123.883 130.123 112.813 130.925C107.153 131.335 100.554 131.033 94.0761 128.412C87.613 125.797 81.2178 120.853 75.9855 111.886C70.8104 103.017 72.0879 94.4471 76.0516 90.0931C78.0253 87.9249 80.6655 86.7845 83.5839 87.0944C86.5117 87.4053 89.8393 89.1904 93.1233 93.1189C93.995 96.1146 95.7997 100.615 98.4529 104.581C101.098 108.535 104.689 112.109 109.172 112.941C111.555 113.383 113.842 112.532 115.917 111.005C117.989 109.479 119.921 107.229 121.65 104.708C125.1 99.6787 127.846 93.415 129.329 89.1645C131.324 84.8963 135.778 72.4741 137.978 56.2303C138.29 54.4624 139.005 51.7288 140.164 49.0176C141.218 46.5537 142.609 44.1782 144.341 42.5458L142.974 47.0781C142.526 48.5613 144.443 49.5397 145.414 48.4054C147.176 46.347 149.285 43.9923 151.243 42.0175C152.222 41.0297 153.156 40.1443 153.986 39.4408C154.076 39.3648 154.164 39.2914 154.25 39.2206Z" fill="#202124"/>
<path d="M133.991 91.7685C129.791 79.8669 115.052 80.5268 105.359 83.1202C103.779 83.543 103.23 85.7015 103.824 87.2259C104 87.6779 104.152 88.1432 104.284 88.6077C104.484 89.3109 102.874 89.9991 102.351 89.4883C99.9729 87.1653 95.7936 83.8339 88.9354 79.6525C78.0826 73.0356 66.6915 75.5467 61.4413 78.0016C60.7578 78.3212 60.124 78.7432 59.5605 79.245C54.6923 83.5806 55.0616 87.7826 56.7931 90.7738C58.2999 93.3769 61.3556 94.4175 64.0919 95.6663C67.2499 97.1077 68.1459 98.4993 68.1567 99.3623C68.1602 99.6444 67.8742 99.7944 67.596 99.7476C65.9471 99.4699 61.2618 98.6288 52.1492 96.8777C41.9371 94.9154 37.8869 104.326 37.1383 109.277C36.2102 119.47 45.3666 123.972 52.6682 125.509C55.6455 126.135 58.7052 125.637 61.6501 124.872C73.8214 121.713 76.3511 123.797 75.9875 125.506C75.9693 125.591 75.9269 125.668 75.8683 125.733C72.886 129.036 62.9892 129.296 58.3102 129.006C58.2689 129.004 58.2273 129.006 58.1863 129.011C44.8473 130.826 47.707 145.578 50.8105 152.739C53.6833 157.743 64.655 169.069 85.5593 174.335C111.69 180.917 117.477 166.147 117.917 160.586C118.357 155.026 115.431 153.642 105.761 149.271C98.1986 145.852 98.3366 142.791 99.4004 141.605C99.4486 141.551 99.5088 141.509 99.5747 141.48C104.173 139.415 111.175 144.445 115.632 148.654C117.261 150.191 119.149 151.487 121.337 151.967C133.882 154.718 141.552 149.672 145.347 144.672C147.296 142.104 148.058 138.816 147.809 135.602C146.527 119.055 128.702 111.675 115.942 109.338C127.085 110.018 132.192 104.441 134.049 99.4474C134.964 96.9889 134.863 94.2421 133.991 91.7685Z" fill="#202124"/>
<path fill-rule="evenodd" clip-rule="evenodd" d="M91.5168 101.86C91.1718 102.069 91.049 102.51 91.2364 102.867L97.5237 114.847L91.8858 115.51C91.4673 115.559 91.1679 115.938 91.2171 116.357C91.2664 116.775 91.6455 117.075 92.0641 117.026L97.8856 116.341C98.8601 116.226 99.4168 115.17 98.9609 114.302L95.2875 107.302C95.4935 107.444 95.6964 107.568 95.8964 107.677C97.3289 108.456 98.6395 108.422 99.7304 107.745C100.753 107.111 101.466 105.982 101.957 104.812C102.456 103.623 102.769 102.286 102.932 101.102C102.989 100.684 102.697 100.3 102.28 100.242C101.862 100.185 101.477 100.477 101.42 100.895C101.271 101.983 100.985 103.185 100.55 104.221C100.107 105.276 99.5521 106.06 98.926 106.449C98.3682 106.795 97.6494 106.893 96.6253 106.336C95.552 105.753 94.1924 104.466 92.5393 102.078C92.3098 101.747 91.8618 101.651 91.5168 101.86Z" fill="white"/>
<path fill-rule="evenodd" clip-rule="evenodd" d="M75.8947 105.324C75.5696 105.592 75.5233 106.073 75.7913 106.398C77.5398 108.519 79.0567 109.809 80.3902 110.425C81.7656 111.06 82.987 110.988 83.9732 110.329C84.8992 109.71 85.4909 108.655 85.8672 107.586C86.2498 106.499 86.4477 105.29 86.5156 104.226C86.5425 103.805 86.2233 103.443 85.8028 103.416C85.3823 103.389 85.0196 103.708 84.9927 104.129C84.9312 105.092 84.7524 106.157 84.4277 107.079C84.0968 108.019 83.6508 108.709 83.1253 109.06C82.6601 109.371 82.0164 109.495 81.0298 109.039C80.0013 108.564 78.6593 107.478 76.9688 105.428C76.7008 105.103 76.2199 105.056 75.8947 105.324Z" fill="white"/>
<path fill-rule="evenodd" clip-rule="evenodd" d="M80.6928 117.918C80.3614 118.178 80.3036 118.658 80.5639 118.989C82.6977 121.707 85.429 122.818 87.9528 123.097C90.4545 123.372 92.7674 122.834 94.1614 122.237C94.5488 122.071 94.7285 121.623 94.5627 121.235C94.3969 120.848 93.9484 120.668 93.561 120.834C92.3782 121.34 90.3292 121.823 88.12 121.58C85.9327 121.339 83.6038 120.39 81.7642 118.047C81.5039 117.715 81.0243 117.658 80.6928 117.918Z" fill="white"/>
<path d="M161.49 9.96415C162.219 9.96415 162.809 9.37389 162.809 8.64577C162.809 7.91765 162.219 7.32739 161.49 7.32739C160.762 7.32739 160.172 7.91765 160.172 8.64577C160.172 9.37389 160.762 9.96415 161.49 9.96415Z" fill="#202124"/>
<path d="M164.86 9.96415C165.588 9.96415 166.178 9.37389 166.178 8.64577C166.178 7.91765 165.588 7.32739 164.86 7.32739C164.132 7.32739 163.542 7.91765 163.542 8.64577C163.542 9.37389 164.132 9.96415 164.86 9.96415Z" fill="#202124"/>
<path d="M168.247 9.96415C168.975 9.96415 169.566 9.37389 169.566 8.64577C169.566 7.91765 168.975 7.32739 168.247 7.32739C167.519 7.32739 166.929 7.91765 166.929 8.64577C166.929 9.37389 167.519 9.96415 168.247 9.96415Z" fill="#202124"/>
<path d="M161.49 13.3516C162.219 13.3516 162.809 12.7613 162.809 12.0332C162.809 11.3051 162.219 10.7148 161.49 10.7148C160.762 10.7148 160.172 11.3051 160.172 12.0332C160.172 12.7613 160.762 13.3516 161.49 13.3516Z" fill="#202124"/>
<path d="M158.122 13.3516C158.85 13.3516 159.44 12.7613 159.44 12.0332C159.44 11.3051 158.85 10.7148 158.122 10.7148C157.393 10.7148 156.803 11.3051 156.803 12.0332C156.803 12.7613 157.393 13.3516 158.122 13.3516Z" fill="#202124"/>
<path d="M164.86 13.3516C165.588 13.3516 166.178 12.7613 166.178 12.0332C166.178 11.3051 165.588 10.7148 164.86 10.7148C164.132 10.7148 163.542 11.3051 163.542 12.0332C163.542 12.7613 164.132 13.3516 164.86 13.3516Z" fill="#202124"/>
<path d="M168.247 13.3516C168.975 13.3516 169.566 12.7613 169.566 12.0332C169.566 11.3051 168.975 10.7148 168.247 10.7148C167.519 10.7148 166.929 11.3051 166.929 12.0332C166.929 12.7613 167.519 13.3516 168.247 13.3516Z" fill="#202124"/>
<path d="M171.616 13.3516C172.345 13.3516 172.935 12.7613 172.935 12.0332C172.935 11.3051 172.345 10.7148 171.616 10.7148C170.888 10.7148 170.298 11.3051 170.298 12.0332C170.298 12.7613 170.888 13.3516 171.616 13.3516Z" fill="#202124"/>
<path d="M168.247 30.2342C168.975 30.2342 169.566 29.6439 169.566 28.9158C169.566 28.1877 168.975 27.5974 168.247 27.5974C167.519 27.5974 166.929 28.1877 166.929 28.9158C166.929 29.6439 167.519 30.2342 168.247 30.2342Z" fill="#202124"/>
<path d="M164.86 30.2342C165.588 30.2342 166.178 29.6439 166.178 28.9158C166.178 28.1877 165.588 27.5974 164.86 27.5974C164.132 27.5974 163.542 28.1877 163.542 28.9158C163.542 29.6439 164.132 30.2342 164.86 30.2342Z" fill="#202124"/>
<path d="M161.49 30.2342C162.219 30.2342 162.809 29.6439 162.809 28.9158C162.809 28.1877 162.219 27.5974 161.49 27.5974C160.762 27.5974 160.172 28.1877 160.172 28.9158C160.172 29.6439 160.762 30.2342 161.49 30.2342Z" fill="#202124"/>
<path d="M168.247 26.8467C168.975 26.8467 169.566 26.2565 169.566 25.5283C169.566 24.8002 168.975 24.21 168.247 24.21C167.519 24.21 166.929 24.8002 166.929 25.5283C166.929 26.2565 167.519 26.8467 168.247 26.8467Z" fill="#202124"/>
<path d="M171.616 26.8467C172.345 26.8467 172.935 26.2565 172.935 25.5283C172.935 24.8002 172.345 24.21 171.616 24.21C170.888 24.21 170.298 24.8002 170.298 25.5283C170.298 26.2565 170.888 26.8467 171.616 26.8467Z" fill="#D8FFA2"/>
<path d="M164.86 26.8467C165.588 26.8467 166.178 26.2565 166.178 25.5283C166.178 24.8002 165.588 24.21 164.86 24.21C164.132 24.21 163.542 24.8002 163.542 25.5283C163.542 26.2565 164.132 26.8467 164.86 26.8467Z" fill="#202124"/>
<path d="M161.49 26.8467C162.219 26.8467 162.809 26.2565 162.809 25.5283C162.809 24.8002 162.219 24.21 161.49 24.21C160.762 24.21 160.172 24.8002 160.172 25.5283C160.172 26.2565 160.762 26.8467 161.49 26.8467Z" fill="#202124"/>
<path d="M158.122 26.8467C158.85 26.8467 159.44 26.2565 159.44 25.5283C159.44 24.8002 158.85 24.21 158.122 24.21C157.393 24.21 156.803 24.8002 156.803 25.5283C156.803 26.2565 157.393 26.8467 158.122 26.8467Z" fill="#202124"/>
<path d="M161.49 16.7207C162.219 16.7207 162.809 16.1305 162.809 15.4024C162.809 14.6742 162.219 14.084 161.49 14.084C160.762 14.084 160.172 14.6742 160.172 15.4024C160.172 16.1305 160.762 16.7207 161.49 16.7207Z" fill="#202124"/>
<path d="M158.122 16.7207C158.85 16.7207 159.44 16.1305 159.44 15.4024C159.44 14.6742 158.85 14.084 158.122 14.084C157.393 14.084 156.803 14.6742 156.803 15.4024C156.803 16.1305 157.393 16.7207 158.122 16.7207Z" fill="#202124"/>
<path d="M154.734 16.7207C155.462 16.7207 156.052 16.1305 156.052 15.4024C156.052 14.6742 155.462 14.084 154.734 14.084C154.006 14.084 153.416 14.6742 153.416 15.4024C153.416 16.1305 154.006 16.7207 154.734 16.7207Z" fill="#202124"/>
<path d="M164.86 16.7207C165.588 16.7207 166.178 16.1305 166.178 15.4024C166.178 14.6742 165.588 14.084 164.86 14.084C164.132 14.084 163.542 14.6742 163.542 15.4024C163.542 16.1305 164.132 16.7207 164.86 16.7207Z" fill="#202124"/>
<path d="M168.247 16.7207C168.975 16.7207 169.566 16.1305 169.566 15.4024C169.566 14.6742 168.975 14.084 168.247 14.084C167.519 14.084 166.929 14.6742 166.929 15.4024C166.929 16.1305 167.519 16.7207 168.247 16.7207Z" fill="#202124"/>
<path d="M171.616 16.7207C172.345 16.7207 172.935 16.1305 172.935 15.4024C172.935 14.6742 172.345 14.084 171.616 14.084C170.888 14.084 170.298 14.6742 170.298 15.4024C170.298 16.1305 170.888 16.7207 171.616 16.7207Z" fill="#202124"/>
<path d="M175.004 16.7207C175.732 16.7207 176.322 16.1305 176.322 15.4024C176.322 14.6742 175.732 14.084 175.004 14.084C174.276 14.084 173.686 14.6742 173.686 15.4024C173.686 16.1305 174.276 16.7207 175.004 16.7207Z" fill="#202124"/>
<path d="M161.49 20.0901C162.219 20.0901 162.809 19.4999 162.809 18.7717C162.809 18.0436 162.219 17.4534 161.49 17.4534C160.762 17.4534 160.172 18.0436 160.172 18.7717C160.172 19.4999 160.762 20.0901 161.49 20.0901Z" fill="#BCB4FF"/>
<path d="M158.122 20.0901C158.85 20.0901 159.44 19.4999 159.44 18.7717C159.44 18.0436 158.85 17.4534 158.122 17.4534C157.393 17.4534 156.803 18.0436 156.803 18.7717C156.803 19.4999 157.393 20.0901 158.122 20.0901Z" fill="#202124"/>
<path d="M154.734 20.0901C155.462 20.0901 156.052 19.4999 156.052 18.7717C156.052 18.0436 155.462 17.4534 154.734 17.4534C154.006 17.4534 153.416 18.0436 153.416 18.7717C153.416 19.4999 154.006 20.0901 154.734 20.0901Z" fill="#202124"/>
<path d="M164.86 20.0901C165.588 20.0901 166.178 19.4999 166.178 18.7717C166.178 18.0436 165.588 17.4534 164.86 17.4534C164.132 17.4534 163.542 18.0436 163.542 18.7717C163.542 19.4999 164.132 20.0901 164.86 20.0901Z" fill="#202124"/>
<path d="M168.247 20.0901C168.975 20.0901 169.566 19.4999 169.566 18.7717C169.566 18.0436 168.975 17.4534 168.247 17.4534C167.519 17.4534 166.929 18.0436 166.929 18.7717C166.929 19.4999 167.519 20.0901 168.247 20.0901Z" fill="#202124"/>
<path d="M171.616 20.0901C172.345 20.0901 172.935 19.4999 172.935 18.7717C172.935 18.0436 172.345 17.4534 171.616 17.4534C170.888 17.4534 170.298 18.0436 170.298 18.7717C170.298 19.4999 170.888 20.0901 171.616 20.0901Z" fill="#202124"/>
<path d="M175.004 20.0901C175.732 20.0901 176.322 19.4999 176.322 18.7717C176.322 18.0436 175.732 17.4534 175.004 17.4534C174.276 17.4534 173.686 18.0436 173.686 18.7717C173.686 19.4999 174.276 20.0901 175.004 20.0901Z" fill="#202124"/>
<path d="M161.49 23.4776C162.219 23.4776 162.809 22.8873 162.809 22.1592C162.809 21.4311 162.219 20.8408 161.49 20.8408C160.762 20.8408 160.172 21.4311 160.172 22.1592C160.172 22.8873 160.762 23.4776 161.49 23.4776Z" fill="#202124"/>
<path d="M158.122 23.4776C158.85 23.4776 159.44 22.8873 159.44 22.1592C159.44 21.4311 158.85 20.8408 158.122 20.8408C157.393 20.8408 156.803 21.4311 156.803 22.1592C156.803 22.8873 157.393 23.4776 158.122 23.4776Z" fill="#202124"/>
<path d="M154.734 23.4776C155.462 23.4776 156.052 22.8873 156.052 22.1592C156.052 21.4311 155.462 20.8408 154.734 20.8408C154.006 20.8408 153.416 21.4311 153.416 22.1592C153.416 22.8873 154.006 23.4776 154.734 23.4776Z" fill="#202124"/>
<path d="M164.86 23.4776C165.588 23.4776 166.178 22.8873 166.178 22.1592C166.178 21.4311 165.588 20.8408 164.86 20.8408C164.132 20.8408 163.542 21.4311 163.542 22.1592C163.542 22.8873 164.132 23.4776 164.86 23.4776Z" fill="#202124"/>
<path d="M168.247 23.4776C168.975 23.4776 169.566 22.8873 169.566 22.1592C169.566 21.4311 168.975 20.8408 168.247 20.8408C167.519 20.8408 166.929 21.4311 166.929 22.1592C166.929 22.8873 167.519 23.4776 168.247 23.4776Z" fill="#202124"/>
<path d="M171.616 23.4776C172.345 23.4776 172.935 22.8873 172.935 22.1592C172.935 21.4311 172.345 20.8408 171.616 20.8408C170.888 20.8408 170.298 21.4311 170.298 22.1592C170.298 22.8873 170.888 23.4776 171.616 23.4776Z" fill="#202124"/>
<path d="M175.004 23.4776C175.732 23.4776 176.322 22.8873 176.322 22.1592C176.322 21.4311 175.732 20.8408 175.004 20.8408C174.276 20.8408 173.686 21.4311 173.686 22.1592C173.686 22.8873 174.276 23.4776 175.004 23.4776Z" fill="#202124"/>
</svg>
